<svg width="24" height="25" viewBox="0 0 24 25" fill="none" xmlns="http://www.w3.org/2000/svg">
<path d="M16 1.45377C16.4142 1.45377 16.75 1.78955 16.75 2.20377V3.65396H17.25C19.3211 3.65396 21 5.33289 21 7.40396V17.654C20.9999 19.7249 19.321 21.404 17.25 21.404H6.75C4.67899 21.404 3.0001 19.7249 3 17.654V7.40396C3 5.33289 4.67893 3.65396 6.75 3.65396H7.25V2.20377C7.25 1.78955 7.58579 1.45377 8 1.45377C8.41421 1.45377 8.75 1.78955 8.75 2.20377V3.65396H15.25V2.20377C15.25 1.78955 15.5858 1.45377 16 1.45377ZM4.5 17.654C4.5001 18.8965 5.50742 19.904 6.75 19.904H17.25C18.4926 19.904 19.4999 18.8965 19.5 17.654V10.8571H4.5V17.654ZM6.75 5.15396C5.50736 5.15396 4.5 6.16132 4.5 7.40396V9.35709H19.5V7.40396C19.5 6.16132 18.4926 5.15396 17.25 5.15396H16.75V6.20377C16.75 6.61798 16.4142 6.95377 16 6.95377C15.5858 6.95377 15.25 6.61798 15.25 6.20377V5.15396H8.75V6.20377C8.75 6.61798 8.41421 6.95377 8 6.95377C7.58579 6.95377 7.25 6.61798 7.25 6.20377V5.15396H6.75Z" fill="#1F1F1F"/>
</svg>
