<svg width="41" height="42" viewBox="0 0 41 42" fill="none" xmlns="http://www.w3.org/2000/svg">
<path d="M17.7314 21.2306C17.6159 18.2278 19.8006 17.429 20.9074 17.4049C22.1104 17.4049 24.4299 18.17 24.0834 21.2306C23.7369 24.2911 21.8217 24.8637 20.9074 24.7675C19.8968 24.8397 17.8469 24.2333 17.7314 21.2306Z" fill="#201811"/>
<path d="M24.5165 25.2006C21.2827 27.8569 18.2126 26.3074 17.0817 25.2006C16.6246 24.7434 15.6092 23.5693 15.205 22.5298C14.6997 21.2306 13.5448 20.7975 12.6064 21.2306C11.6681 21.6636 11.3793 22.7464 11.8124 23.8291C12.2455 24.9118 14.1944 26.4998 15.4215 27.4382C16.6486 28.3766 16.5764 30.542 16.6486 30.9751C16.7208 31.4082 16.0712 37.7602 15.9268 39.2039C15.7824 40.6475 16.3599 41.4415 17.7314 41.4415C19.1028 41.4415 19.5359 40.431 19.5359 39.2039C19.5359 37.9768 19.969 36.1001 20.1856 35.7391C20.4021 35.3782 21.1239 35.2339 21.4848 35.7391C21.8457 36.2444 22.1345 38.049 22.1345 39.2039C22.1345 40.3588 22.2067 41.3693 24.0834 41.225C25.5848 41.1095 25.7195 39.3964 25.5992 38.5542C25.4308 37.0865 25.1084 33.5592 25.1661 31.1917C25.2239 28.8241 26.297 27.4141 26.8263 27.0051C27.5241 26.3314 29.0206 24.8108 29.4249 24.1178C29.9301 23.2517 29.858 21.5915 28.9196 21.2306C27.9812 20.8696 27.2594 20.7253 26.2488 22.4576C25.2383 24.19 26.2488 22.602 24.5165 25.2006Z" fill="#201811"/>
<path d="M13.256 18.7763C12.2744 17.9101 12.9433 16.683 13.4004 16.1777C13.256 16.274 13.3571 16.0911 16.3599 13.7235C19.3627 11.356 23.0247 12.3761 24.2999 13.2904C25.0458 13.7476 26.7974 14.9651 27.8368 16.1777C28.8763 17.3904 28.4143 18.3191 28.0534 18.6319C27.524 18.9688 26.2777 19.296 25.527 17.9101C24.7763 16.5242 23.1931 15.3597 22.4954 14.9506C21.8457 14.7822 20.2144 14.5753 18.8862 15.095C17.5581 15.6147 16.408 17.1883 15.999 17.9101C15.4937 18.5597 14.2377 19.6425 13.256 18.7763Z" fill="#201811"/>
<path d="M13.2561 37.1827C15.7391 39.8968 13.3282 39.7572 11.8124 39.3482C9.95973 38.6264 5.87904 36.5186 4.37765 33.8623C2.50091 30.542 1.12946 27.5103 0.91291 20.5087C0.739673 14.9073 3.15056 10.1385 4.37765 8.45427C5.31602 6.64972 8.89625 2.62196 15.7102 0.947337C22.5242 -0.727286 28.8474 2.36692 31.1572 4.12335C34.261 6.50535 40.5409 12.7274 40.8296 18.5598C41.1905 25.8501 40.2522 27.2216 37.7258 31.8412C35.1994 36.4609 30.0745 37.9767 29.5692 38.2654C29.0639 38.5542 24.6608 38.1933 28.7752 36.0278C32.0667 34.2954 35.0069 30.4938 36.0656 28.8096C37.0761 26.8366 38.6208 21.3893 36.7152 15.3837C34.8096 9.3782 29.2805 5.66323 26.7541 4.55644C23.7225 3.69025 16.5331 2.65083 12.029 5.42262C6.39875 8.88736 6.1822 11.1972 4.73856 14.8063C3.58365 17.6936 3.77613 23.1794 4.01674 25.5614C3.9205 26.6201 4.42096 29.4737 7.19275 32.4187C10.6575 36.1 8.78076 34.4398 13.2561 37.1827Z" fill="#201811"/>
<path d="M27.6203 30.542C25.8549 32.4656 27.5531 32.7087 28.6309 32.4188C29.9481 31.9072 31.1891 31.342 32.2566 29.4593C33.5909 27.106 35.4786 25.9043 35.6325 20.9418C35.755 16.9939 33.1582 13.4412 32.2713 12.2279L32.2566 12.2078C31.5894 10.9288 28.8559 8.41413 24.0112 7.22724C19.1665 6.04034 15.1153 7.49182 13.4731 8.7367C11.2663 10.425 6.23093 13.7236 5.96567 19.0651C5.70906 24.2322 6.55144 24.958 8.34768 28.2322C10.1439 31.5064 12.4923 32.6867 12.8951 32.7797C13.8335 32.9962 15.6356 31.5308 13.4004 29.0984C10.9462 26.4277 11.4824 27.1161 10.7297 25.9224C10.0112 24.524 8.62837 21.517 9.98324 17.2605C11.3381 13.0041 13.3704 11.2599 15.1667 10.4754C17.3222 9.86152 22.1802 8.87182 25.3827 10.8363C29.3857 13.292 30.8851 14.0573 31.5181 16.7175C32.1512 19.3778 32.2667 21.419 32.0956 23.1073C31.8069 24.0456 32.04 24.5509 30.0745 27.366C28.0203 30.3081 28.1503 29.9646 27.6203 30.542Z" fill="#201811"/>
</svg>
