<svg width="1441" height="385" viewBox="0 0 1441 385" fill="none" xmlns="http://www.w3.org/2000/svg">
<path d="M-64.5 262.5C-2.40664 262.5 30.5 382 79 357C127.5 332 161 155.5 284.5 167.5C408 179.5 284 383.5 400.5 383.5C517 383.5 523 1.49963 658.5 1.5C794 1.50037 767.129 322.902 847 344C883.5 353.641 903.175 256.343 929.5 189C951 134 1011.5 103 1057.5 167.5C1103.69 232.271 1099 315 1150 315C1190 315 1235.46 69 1317.5 69C1428 69 1352.39 328.596 1428 315C1586.5 286.499 1635.43 98.7815 1682.5 19.9998" stroke="#F4F1E5" stroke-width="2" stroke-dasharray="10 10"/>
<path d="M-64.5 262.5C-2.40664 262.5 30.5 382 79 357C127.5 332 161 155.5 284.5 167.5C408 179.5 284 383.5 400.5 383.5C517 383.5 523 1.49963 658.5 1.5C794 1.50037 767.129 322.902 847 344C883.5 353.641 903.175 256.343 929.5 189C951 134 1011.5 103 1057.5 167.5C1103.69 232.271 1099 315 1150 315C1190 315 1235.46 69 1317.5 69C1428 69 1352.39 328.596 1428 315C1586.5 286.499 1635.43 98.7815 1682.5 19.9998" stroke="black" stroke-opacity="0.2" stroke-width="2" stroke-dasharray="10 10"/>
</svg>
