<svg width="60" height="60" viewBox="0 0 60 60" fill="none" xmlns="http://www.w3.org/2000/svg">
<circle cx="30" cy="30" r="30" transform="matrix(-1 0 0 1 60 0)" fill="white" fill-opacity="0.5"/>
<path d="M19 28.5C18.1716 28.5 17.5 29.1716 17.5 30C17.5 30.8284 18.1716 31.5 19 31.5L19 30L19 28.5ZM42.0607 31.0607C42.6464 30.4749 42.6464 29.5251 42.0607 28.9393L32.5147 19.3934C31.9289 18.8076 30.9792 18.8076 30.3934 19.3934C29.8076 19.9792 29.8076 20.9289 30.3934 21.5147L38.8787 30L30.3934 38.4853C29.8076 39.0711 29.8076 40.0208 30.3934 40.6066C30.9792 41.1924 31.9289 41.1924 32.5147 40.6066L42.0607 31.0607ZM19 30L19 31.5L41 31.5L41 30L41 28.5L19 28.5L19 30Z" fill="#7A7872"/>
</svg>
