<svg width="1246" height="641" viewBox="0 0 1246 641" fill="none" xmlns="http://www.w3.org/2000/svg">
<path d="M1044.28 86.6994L1044.54 87.6642L1044.28 86.6994ZM825.102 7.15837L824.817 6.19984L825.102 7.15837ZM947.064 54.883L946.066 54.8275L947.064 54.883ZM647.057 360.269L647.144 361.265L647.057 360.269ZM68.5775 484.405L69.2532 485.142L68.5775 484.405ZM9.91106 640.893C10.4312 641.079 11.0034 640.808 11.1891 640.288L14.2162 631.812C14.4019 631.292 14.1309 630.72 13.6108 630.534C13.0906 630.349 12.5184 630.62 12.3327 631.14L9.64199 638.674L2.10805 635.983C1.58794 635.797 1.01573 636.068 0.829974 636.588C0.64422 637.109 0.915269 637.681 1.43538 637.867L9.91106 640.893ZM10.2474 639.952L11.1511 639.524C10.6118 638.385 10.1178 637.195 9.66899 635.957L8.72882 636.297L7.78865 636.638C8.25783 637.933 8.77588 639.181 9.34365 640.38L10.2474 639.952ZM6.63385 628.662L7.61485 628.468C7.12916 626.012 6.7798 623.426 6.56528 620.726L5.56842 620.805L4.57156 620.884C4.79163 623.655 5.15083 626.318 5.65285 628.856L6.63385 628.662ZM5.31576 612.875L6.31569 612.887C6.34677 610.35 6.47987 607.736 6.71362 605.058L5.7174 604.971L4.72119 604.884C4.48338 607.609 4.34757 610.272 4.31584 612.863L5.31576 612.875ZM6.66391 597.095L7.65259 597.245C8.03816 594.705 8.50578 592.118 9.05428 589.495L8.07544 589.29L7.0966 589.085C6.54084 591.744 6.06657 594.366 5.67523 596.945L6.66391 597.095ZM9.89292 581.574L10.8604 581.827C11.515 579.324 12.2386 576.795 13.0302 574.247L12.0753 573.95L11.1203 573.653C10.3198 576.23 9.58786 578.788 8.92545 581.321L9.89292 581.574ZM14.5914 566.425L15.5329 566.762C16.4081 564.316 17.3436 561.858 18.3384 559.395L17.4112 559.02L16.4839 558.646C15.4792 561.134 14.5342 563.616 13.6498 566.088L14.5914 566.425ZM20.5244 551.722L21.4365 552.132C22.5063 549.752 23.6304 547.371 24.8079 544.995L23.9118 544.551L23.0158 544.107C21.8272 546.506 20.6924 548.909 19.6123 551.312L20.5244 551.722ZM27.5613 537.515L28.4404 537.992C29.6876 535.692 30.9846 533.401 32.3307 531.123L31.4698 530.614L30.6089 530.105C29.2502 532.405 27.9411 534.717 26.6823 537.038L27.5613 537.515ZM35.6307 523.859L36.4723 524.399C37.8871 522.194 39.3484 520.006 40.8555 517.838L40.0345 517.268L39.2135 516.697C37.6921 518.884 36.2171 521.093 34.789 523.319L35.6307 523.859ZM44.6827 510.844L45.4816 511.446C47.0603 509.349 48.6829 507.277 50.3487 505.234L49.5737 504.602L48.7986 503.97C47.1162 506.034 45.4778 508.126 43.8839 510.243L44.6827 510.844ZM54.7055 498.555L55.4549 499.217C57.1939 497.249 58.9748 495.313 60.7971 493.414L60.0754 492.721L59.3538 492.029C57.5123 493.949 55.7129 495.905 53.9561 497.893L54.7055 498.555ZM65.6837 487.116L66.3754 487.838C67.3246 486.929 68.2839 486.03 69.2532 485.142L68.5775 484.405L67.9018 483.668C66.9216 484.566 65.9517 485.475 64.9921 486.394L65.6837 487.116ZM68.5775 484.405L69.2532 485.142C70.2034 484.271 71.1858 483.404 72.2003 482.541L71.5523 481.779L70.9044 481.018C69.8717 481.896 68.8708 482.779 67.9018 483.668L68.5775 484.405ZM77.871 476.76L78.468 477.562C80.5512 476.012 82.7409 474.475 85.0367 472.952L84.4838 472.118L83.9309 471.285C81.607 472.827 79.3877 474.385 77.274 475.958L77.871 476.76ZM91.3354 467.799L91.8499 468.657C94.0934 467.311 96.4219 465.976 98.8348 464.652L98.3538 463.775L97.8727 462.898C95.4384 464.234 93.0876 465.582 90.8209 466.942L91.3354 467.799ZM105.45 460.035L105.902 460.927C108.239 459.742 110.646 458.567 113.121 457.401L112.695 456.496L112.269 455.591C109.777 456.766 107.353 457.949 104.998 459.143L105.45 460.035ZM120.087 453.129L120.49 454.044C122.89 452.987 125.349 451.937 127.865 450.894L127.482 449.97L127.099 449.046C124.57 450.094 122.098 451.15 119.683 452.214L120.087 453.129ZM134.95 446.964L135.315 447.895C137.795 446.924 140.327 445.96 142.909 445.003L142.562 444.065L142.214 443.128C139.621 444.089 137.078 445.057 134.586 446.032L134.95 446.964ZM150.087 441.345L150.42 442.288C152.922 441.406 155.469 440.529 158.06 439.658L157.741 438.71L157.422 437.762C154.823 438.636 152.267 439.516 149.755 440.402L150.087 441.345ZM165.408 436.189L165.715 437.141C168.233 436.332 170.79 435.527 173.386 434.728L173.092 433.772L172.797 432.816C170.194 433.618 167.629 434.425 165.102 435.237L165.408 436.189ZM180.857 431.429L181.14 432.388C183.673 431.639 186.239 430.895 188.84 430.155L188.567 429.193L188.293 428.231C185.686 428.973 183.112 429.719 180.573 430.47L180.857 431.429ZM196.395 427.008L196.659 427.973C199.206 427.275 201.783 426.582 204.391 425.892L204.136 424.925L203.88 423.959C201.266 424.65 198.683 425.345 196.131 426.044L196.395 427.008ZM212.001 422.882L212.249 423.851C214.811 423.197 217.401 422.546 220.019 421.899L219.78 420.928L219.54 419.958C216.916 420.606 214.321 421.258 211.754 421.913L212.001 422.882ZM227.662 419.012L227.895 419.985C230.475 419.368 233.081 418.754 235.713 418.143L235.487 417.169L235.261 416.195C232.625 416.806 230.014 417.421 227.429 418.04L227.662 419.012ZM243.371 415.368L243.591 416.343C246.191 415.758 248.817 415.176 251.466 414.597L251.253 413.62L251.039 412.643C248.386 413.223 245.756 413.806 243.152 414.392L243.371 415.368ZM259.126 411.923L259.334 412.901C261.958 412.343 264.606 411.788 267.276 411.236L267.073 410.257L266.871 409.278C264.197 409.83 261.546 410.386 258.918 410.944L259.126 411.923ZM274.928 408.655L275.125 409.635C277.763 409.104 280.423 408.576 283.103 408.05L282.911 407.069L282.719 406.087C280.034 406.614 277.372 407.143 274.73 407.674L274.928 408.655ZM290.778 405.546L290.966 406.528C293.594 406.025 296.241 405.525 298.909 405.028L298.725 404.045L298.542 403.062C295.872 403.56 293.221 404.06 290.59 404.563L290.778 405.546ZM306.68 402.579L306.859 403.563C309.475 403.087 312.109 402.613 314.762 402.141L314.587 401.157L314.412 400.172C311.757 400.644 309.119 401.119 306.5 401.596L306.68 402.579ZM322.605 399.748L322.776 400.733C325.39 400.279 328.021 399.828 330.669 399.378L330.502 398.392L330.334 397.406C327.684 397.856 325.05 398.308 322.434 398.763L322.605 399.748ZM338.469 397.054L338.633 398.04C341.283 397.6 343.95 397.162 346.634 396.726L346.473 395.739L346.313 394.752C343.627 395.188 340.958 395.627 338.305 396.067L338.469 397.054ZM354.389 394.466L354.547 395.454C357.2 395.032 359.869 394.612 362.555 394.193L362.401 393.205L362.247 392.217C359.56 392.636 356.888 393.056 354.232 393.479L354.389 394.466ZM370.371 391.977L370.522 392.965C373.157 392.563 375.807 392.163 378.472 391.764L378.324 390.775L378.176 389.786C375.51 390.185 372.858 390.586 370.22 390.988L370.371 391.977ZM386.366 389.584L386.511 390.574C389.146 390.188 391.794 389.803 394.457 389.42L394.315 388.431L394.172 387.441C391.508 387.824 388.857 388.209 386.221 388.595L386.366 389.584ZM402.293 387.294L402.433 388.285C405.106 387.908 407.792 387.532 410.492 387.159L410.355 386.168L410.218 385.178C407.516 385.551 404.828 385.927 402.154 386.304L402.293 387.294ZM418.293 385.08L418.428 386.071C421.079 385.711 423.743 385.352 426.42 384.995L426.288 384.004L426.156 383.012C423.477 383.37 420.812 383.729 418.159 384.089L418.293 385.08ZM434.361 382.937L434.491 383.928C437.124 383.583 439.77 383.24 442.428 382.898L442.3 381.906L442.173 380.914C439.513 381.256 436.866 381.6 434.231 381.945L434.361 382.937ZM450.304 380.885L450.429 381.877C453.108 381.538 455.8 381.201 458.503 380.865L458.38 379.873L458.256 378.88C455.552 379.217 452.859 379.554 450.178 379.893L450.304 380.885ZM466.331 378.893L466.453 379.886C469.109 379.561 471.777 379.238 474.456 378.916L474.337 377.923L474.217 376.93C471.537 377.252 468.868 377.576 466.21 377.9L466.331 378.893ZM482.41 376.961L482.527 377.955C485.174 377.642 487.831 377.331 490.5 377.02L490.384 376.027L490.269 375.034C487.599 375.344 484.941 375.656 482.293 375.968L482.41 376.961ZM498.386 375.105L498.5 376.098C501.177 375.792 503.865 375.487 506.564 375.183L506.452 374.19L506.34 373.196C503.64 373.5 500.951 373.805 498.272 374.111L498.386 375.105ZM514.458 373.296L514.568 374.29C517.222 373.996 519.886 373.703 522.56 373.411L522.452 372.417L522.344 371.423C519.668 371.715 517.003 372.008 514.348 372.302L514.458 373.296ZM530.506 371.545L530.613 372.54C533.285 372.253 535.967 371.967 538.658 371.682L538.553 370.688L538.448 369.694C535.755 369.978 533.073 370.264 530.4 370.551L530.506 371.545ZM546.535 369.85L546.639 370.845C549.309 370.567 551.988 370.29 554.677 370.014L554.575 369.019L554.473 368.024C551.783 368.3 549.103 368.577 546.432 368.856L546.535 369.85ZM562.67 368.194L562.771 369.189C565.417 368.922 568.073 368.655 570.737 368.39L570.638 367.395L570.539 366.4C567.874 366.665 565.217 366.932 562.57 367.199L562.67 368.194ZM578.66 366.601L578.758 367.596C581.441 367.333 584.132 367.07 586.833 366.809L586.737 365.814L586.64 364.818C583.939 365.08 581.246 365.342 578.563 365.606L578.66 366.601ZM594.762 365.042L594.857 366.038C597.516 365.784 600.183 365.531 602.858 365.279L602.765 364.284L602.671 363.288C599.995 363.54 597.327 363.793 594.667 364.047L594.762 365.042ZM610.819 363.531L610.911 364.527C613.599 364.277 616.296 364.029 619.001 363.781L618.91 362.785L618.819 361.789C616.113 362.037 613.415 362.286 610.726 362.535L610.819 363.531ZM626.891 362.06L626.981 363.055C629.649 362.815 632.325 362.575 635.01 362.335L634.921 361.339L634.832 360.343C632.147 360.582 629.47 360.823 626.801 361.064L626.891 362.06ZM642.999 360.624L643.087 361.621C644.437 361.502 645.79 361.383 647.144 361.265L647.057 360.269L646.97 359.273C645.615 359.391 644.263 359.51 642.912 359.628L642.999 360.624ZM647.057 360.269L647.144 361.265C648.504 361.147 649.857 361.023 651.205 360.896L651.111 359.9L651.016 358.904C649.674 359.032 648.325 359.155 646.97 359.273L647.057 360.269ZM659.107 359.081L659.216 360.075C661.862 359.784 664.484 359.475 667.082 359.149L666.957 358.157L666.833 357.165C664.245 357.49 661.634 357.797 658.998 358.087L659.107 359.081ZM674.684 357.126L674.824 358.116C677.523 357.734 680.196 357.333 682.843 356.913L682.686 355.926L682.53 354.938C679.894 355.356 677.232 355.755 674.544 356.136L674.684 357.126ZM690.53 354.614L690.703 355.599C693.297 355.142 695.864 354.667 698.406 354.174L698.215 353.192L698.025 352.211C695.495 352.701 692.939 353.174 690.356 353.629L690.53 354.614ZM706.081 351.592L706.289 352.57C708.919 352.01 711.52 351.429 714.093 350.83L713.867 349.856L713.64 348.882C711.079 349.479 708.49 350.056 705.872 350.614L706.081 351.592ZM721.482 348.006L721.728 348.976C724.342 348.314 726.925 347.632 729.479 346.93L729.214 345.966L728.949 345.001C726.409 345.7 723.838 346.378 721.237 347.037L721.482 348.006ZM736.885 343.772L737.17 344.731C739.703 343.978 742.206 343.205 744.678 342.413L744.373 341.461L744.068 340.509C741.609 341.296 739.12 342.065 736.6 342.814L736.885 343.772ZM751.976 338.932L752.302 339.877C754.839 339.002 757.344 338.106 759.815 337.189L759.468 336.252L759.12 335.314C756.663 336.225 754.173 337.116 751.65 337.987L751.976 338.932ZM766.764 333.451L767.133 334.38C769.661 333.376 772.153 332.351 774.61 331.305L774.218 330.385L773.826 329.465C771.385 330.504 768.908 331.524 766.395 332.522L766.764 333.451ZM781.462 327.195L781.877 328.105C784.304 326.999 786.697 325.873 789.054 324.727L788.617 323.828L788.179 322.929C785.837 324.067 783.46 325.186 781.048 326.285L781.462 327.195ZM795.763 320.237L796.224 321.124C798.577 319.903 800.893 318.661 803.173 317.399L802.689 316.524L802.205 315.649C799.94 316.902 797.64 318.136 795.302 319.349L795.763 320.237ZM809.641 312.553L810.149 313.414C812.452 312.056 814.716 310.677 816.942 309.279L816.41 308.433L815.878 307.586C813.668 308.974 811.42 310.342 809.133 311.691L809.641 312.553ZM823.059 304.124L823.615 304.956C825.851 303.461 828.047 301.946 830.203 300.413L829.623 299.598L829.044 298.783C826.904 300.305 824.724 301.809 822.503 303.293L823.059 304.124ZM835.971 294.943L836.574 295.741C838.729 294.112 840.841 292.464 842.913 290.797L842.286 290.018L841.659 289.239C839.603 290.893 837.507 292.528 835.368 294.145L835.971 294.943ZM848.354 284.986L849.004 285.746C851.052 283.996 853.057 282.227 855.02 280.442L854.348 279.702L853.675 278.962C851.727 280.734 849.737 282.489 847.704 284.226L848.354 284.986ZM860.118 274.293L860.813 275.012C862.744 273.147 864.631 271.265 866.476 269.369L865.76 268.671L865.043 267.974C863.212 269.856 861.339 271.723 859.423 273.574L860.118 274.293ZM871.199 262.907L871.937 263.582C873.746 261.605 875.511 259.615 877.234 257.612L876.476 256.959L875.717 256.307C874.008 258.295 872.256 260.27 870.461 262.232L871.199 262.907ZM881.556 250.866L882.334 251.495C884.017 249.412 885.656 247.318 887.253 245.215L886.456 244.61L885.66 244.006C884.075 246.093 882.449 248.171 880.779 250.237L881.556 250.866ZM891.158 238.218L891.972 238.798C893.526 236.617 895.036 234.428 896.504 232.231L895.672 231.676L894.841 231.12C893.384 233.3 891.885 235.473 890.343 237.638L891.158 238.218ZM899.98 225.017L900.827 225.548C902.25 223.276 903.629 220.999 904.966 218.719L904.103 218.213L903.24 217.707C901.914 219.971 900.545 222.231 899.132 224.487L899.98 225.017ZM908.009 211.324L908.886 211.805C910.177 209.45 911.425 207.094 912.63 204.738L911.74 204.283L910.85 203.827C909.653 206.166 908.414 208.506 907.132 210.844L908.009 211.324ZM915.241 197.201L916.143 197.632C917.304 195.201 918.42 192.774 919.496 190.353L918.582 189.947L917.668 189.541C916.6 191.946 915.491 194.357 914.339 196.77L915.241 197.201ZM921.694 182.677L922.618 183.058C923.644 180.571 924.627 178.092 925.569 175.624L924.635 175.267L923.701 174.911C922.765 177.362 921.788 179.825 920.769 182.296L921.694 182.677ZM927.371 167.816L928.314 168.148C929.205 165.622 930.054 163.111 930.864 160.618L929.912 160.309L928.961 160C928.157 162.478 927.313 164.973 926.428 167.483L927.371 167.816ZM932.281 152.692L933.24 152.978C934.003 150.412 934.725 147.869 935.408 145.352L934.443 145.09L933.478 144.828C932.799 147.33 932.081 149.857 931.323 152.407L932.281 152.692ZM936.439 137.377L937.41 137.616C938.057 134.989 938.662 132.395 939.229 129.839L938.252 129.622L937.276 129.406C936.713 131.948 936.111 134.526 935.468 137.138L936.439 137.377ZM939.875 121.89L940.856 122.084C941.383 119.421 941.869 116.805 942.317 114.243L941.332 114.071L940.347 113.898C939.902 116.446 939.418 119.047 938.894 121.695L939.875 121.89ZM942.621 106.193L943.61 106.343C944.022 103.64 944.392 101.007 944.725 98.4527L943.733 98.3235L942.742 98.1942C942.41 100.735 942.042 103.353 941.633 106.042L942.621 106.193ZM944.675 90.4538L945.669 90.5622C945.969 87.808 946.226 85.1682 946.448 82.6532L945.452 82.5653L944.456 82.4775C944.235 84.9797 943.979 87.6058 943.68 90.3455L944.675 90.4538ZM946.071 74.6332L947.069 74.7012C947.267 71.7943 947.418 69.1211 947.539 66.7053L946.541 66.6553L945.542 66.6052C945.421 69.0113 945.271 71.6723 945.073 74.5652L946.071 74.6332ZM946.886 58.809L947.885 58.8499C947.949 57.3071 948.004 56.0002 948.063 54.9385L947.064 54.883L946.066 54.8275C946.006 55.9063 945.95 57.2279 945.887 58.7681L946.886 58.809ZM947.064 54.883L948.063 54.9385C948.141 53.528 948.106 52.1125 947.962 50.6969L946.967 50.7982L945.972 50.8996C946.106 52.214 946.138 53.5246 946.066 54.8275L947.064 54.883ZM945.002 42.8696L945.933 42.5046C944.948 39.994 943.644 37.5149 942.047 35.0937L941.212 35.6443L940.377 36.1948C941.905 38.5109 943.142 40.8663 944.071 43.2346L945.002 42.8696ZM936.15 29.2174L936.885 28.5397C935.068 26.5683 933.052 24.655 930.854 22.8159L930.213 23.5829L929.571 24.3498C931.707 26.1372 933.66 27.9914 935.415 29.8952L936.15 29.2174ZM923.656 18.6886L924.211 17.8568C921.975 16.3642 919.607 14.9409 917.117 13.5984L916.643 14.4786L916.168 15.3587C918.604 16.6725 920.919 18.0636 923.101 19.5203L923.656 18.6886ZM909.281 10.9074L909.679 9.99024C907.2 8.91295 904.628 7.91203 901.971 6.99626L901.645 7.94169L901.32 8.88711C903.928 9.78617 906.452 10.7683 908.882 11.8245L909.281 10.9074ZM893.814 5.56342L894.07 4.59663C891.453 3.90485 888.769 3.29398 886.024 2.77113L885.837 3.75347L885.65 4.73581C888.349 5.24993 890.987 5.85043 893.559 6.53022L893.814 5.56342ZM877.739 2.49595L877.859 1.50317C875.169 1.17812 872.431 0.937247 869.649 0.786503L869.595 1.78504L869.541 2.78357C872.278 2.93193 874.973 3.16895 877.62 3.48873L877.739 2.49595ZM861.405 1.6081L861.394 0.608162C858.681 0.637312 855.935 0.75278 853.159 0.95965L853.234 1.95688L853.308 2.95412C856.041 2.75042 858.745 2.63674 861.415 2.60805L861.405 1.6081ZM845.095 2.82127L844.958 1.83064C842.266 2.20196 839.551 2.6606 836.818 3.21096L837.016 4.19128L837.213 5.1716C839.905 4.62939 842.58 4.17761 845.231 3.81189L845.095 2.82127ZM829.056 6.04666L828.8 5.08004C827.475 5.43112 826.147 5.80422 824.817 6.19984L825.102 7.15837L825.386 8.11691C826.698 7.72698 828.007 7.35926 829.312 7.01328L829.056 6.04666ZM825.102 7.15837L824.817 6.19984C823.478 6.59765 822.167 7.00363 820.883 7.41749L821.189 8.36931L821.496 9.32113C822.766 8.91201 824.063 8.51049 825.386 8.11691L825.102 7.15837ZM813.563 11.0348L813.209 10.0997C810.548 11.1076 808.02 12.1526 805.619 13.2314L806.029 14.1435L806.439 15.0556C808.801 13.9941 811.292 12.9643 813.917 11.97L813.563 11.0348ZM798.772 17.7129L798.298 16.8326C795.775 18.1919 793.425 19.5935 791.241 21.0315L791.791 21.8667L792.341 22.7019C794.473 21.298 796.772 19.9264 799.246 18.5933L798.772 17.7129ZM785.257 26.6791L784.619 25.9087C782.391 27.7524 780.399 29.6413 778.631 31.5647L779.368 32.2415L780.104 32.9182C781.807 31.0655 783.732 29.2388 785.894 27.4495L785.257 26.6791ZM774.386 38.6403L773.546 38.0976C771.972 40.5336 770.716 43.0024 769.755 45.4834L770.688 45.8444L771.62 46.2055C772.53 43.8561 773.723 41.5087 775.226 39.1831L774.386 38.6403ZM768.64 53.6806L767.65 53.5422C767.257 56.349 767.214 59.136 767.482 61.872L768.477 61.7743L769.473 61.6766C769.219 59.0938 769.261 56.4654 769.63 53.819L768.64 53.6806ZM770.174 69.6929L769.226 70.0084C770.096 72.6271 771.245 75.1607 772.635 77.5791L773.502 77.0809L774.369 76.5827C773.043 74.2744 771.95 71.8627 771.123 69.3774L770.174 69.6929ZM778.164 83.7116L777.4 84.3568C778.288 85.4084 779.224 86.4262 780.205 87.4065L780.912 86.6994L781.619 85.9923C780.678 85.0511 779.78 84.0746 778.928 83.0665L778.164 83.7116ZM780.912 86.6994L780.205 87.4065C781.103 88.3043 782.138 89.1853 783.303 90.0475L783.898 89.2436L784.493 88.4397C783.395 87.6273 782.437 86.8101 781.619 85.9923L780.912 86.6994ZM790.673 93.3206L790.225 94.2144C792.438 95.3249 794.896 96.3987 797.588 97.4283L797.945 96.4943L798.302 95.5602C795.663 94.5509 793.267 93.5034 791.122 92.4269L790.673 93.3206ZM805.449 99.0595L805.156 100.016C807.579 100.758 810.142 101.469 812.84 102.146L813.083 101.176L813.327 100.206C810.66 99.537 808.13 98.8347 805.742 98.1034L805.449 99.0595ZM820.794 102.938L820.591 103.917C823.106 104.439 825.716 104.933 828.42 105.398L828.589 104.412L828.758 103.426C826.076 102.966 823.489 102.476 820.998 101.959L820.794 102.938ZM836.431 105.635L836.292 106.625C838.853 106.986 841.486 107.321 844.189 107.629L844.302 106.636L844.415 105.642C841.729 105.336 839.114 105.003 836.571 104.645L836.431 105.635ZM852.189 107.436L852.1 108.432C854.683 108.663 857.324 108.871 860.019 109.052L860.086 108.054L860.153 107.057C857.473 106.876 854.847 106.67 852.278 106.44L852.189 107.436ZM867.991 108.505L867.944 109.504C870.542 109.625 873.186 109.724 875.874 109.798L875.902 108.799L875.93 107.799C873.254 107.725 870.623 107.627 868.038 107.506L867.991 108.505ZM883.819 108.945L883.81 109.945C886.419 109.97 889.066 109.973 891.751 109.952L891.744 108.952L891.736 107.952C889.062 107.973 886.426 107.97 883.829 107.945L883.819 108.945ZM899.675 108.825L899.699 109.825C902.318 109.762 904.97 109.676 907.655 109.569L907.614 108.57L907.574 107.57C904.901 107.678 902.259 107.762 899.651 107.826L899.675 108.825ZM915.526 108.192L915.581 109.19C918.189 109.046 920.825 108.88 923.488 108.693L923.418 107.696L923.348 106.698C920.694 106.884 918.068 107.049 915.471 107.193L915.526 108.192ZM931.318 107.083L931.402 108.08C934.019 107.858 936.661 107.616 939.326 107.352L939.228 106.357L939.129 105.362C936.473 105.624 933.841 105.866 931.234 106.087L931.318 107.083ZM947.107 105.523L947.219 106.517C949.82 106.223 952.442 105.91 955.085 105.576L954.959 104.584L954.834 103.592C952.2 103.925 949.587 104.237 946.995 104.529L947.107 105.523ZM962.823 103.538L962.961 104.529C965.567 104.165 968.191 103.781 970.835 103.377L970.684 102.388L970.533 101.4C967.898 101.803 965.281 102.185 962.684 102.548L962.823 103.538ZM978.485 101.145L978.648 102.131C981.24 101.701 983.849 101.252 986.475 100.782L986.299 99.7978L986.123 98.8135C983.506 99.2814 980.905 99.7295 978.321 100.158L978.485 101.145ZM994.111 98.351L994.299 99.3331C996.872 98.8403 999.459 98.3284 1002.06 97.797L1001.86 96.8173L1001.66 95.8375C999.067 96.3672 996.487 96.8775 993.923 97.3688L994.111 98.351ZM1009.62 95.1829L1009.84 96.1602C1012.41 95.6028 1014.99 95.0264 1017.59 94.4307L1017.37 93.456L1017.14 92.4813C1014.55 93.0752 1011.98 93.6499 1009.41 94.2056L1009.62 95.1829ZM1025.06 91.6429L1025.3 92.6149C1027.86 91.9954 1030.44 91.3571 1033.02 90.6997L1032.78 89.7305L1032.53 88.7613C1029.95 89.4168 1027.38 90.0532 1024.83 90.6709L1025.06 91.6429ZM1040.43 87.7379L1040.69 88.7042C1041.97 88.3622 1043.26 88.0156 1044.54 87.6642L1044.28 86.6994L1044.02 85.7347C1042.73 86.085 1041.45 86.4307 1040.17 86.7716L1040.43 87.7379ZM1044.28 86.6994L1044.54 87.6642C1045.85 87.3088 1047.15 86.9526 1048.44 86.5956L1048.18 85.6315L1047.91 84.6673C1046.62 85.0239 1045.32 85.3797 1044.02 85.7347L1044.28 86.6994ZM1055.94 83.4767L1056.21 84.4396C1058.8 83.7115 1061.39 82.9806 1063.96 82.2471L1063.69 81.2854L1063.41 80.3238C1060.84 81.0564 1058.26 81.7866 1055.67 82.5138L1055.94 83.4767ZM1071.44 79.0554L1071.72 80.0158C1074.31 79.263 1076.89 78.5079 1079.46 77.751L1079.17 76.7918L1078.89 75.8327C1076.33 76.5888 1073.75 77.343 1071.16 78.095L1071.44 79.0554ZM1086.89 74.4953L1087.18 75.4531C1089.77 74.6776 1092.34 73.9007 1094.89 73.1227L1094.6 72.1661L1094.31 71.2096C1091.76 71.9867 1089.19 72.7628 1086.61 73.5374L1086.89 74.4953ZM1102.3 69.8008L1102.6 70.7561C1105.18 69.9555 1107.75 69.1543 1110.3 68.3529L1110 67.399L1109.7 66.445C1107.15 67.2455 1104.59 68.0458 1102.01 68.8455L1102.3 69.8008ZM1117.69 64.9648L1117.99 65.9175C1120.57 65.0944 1123.13 64.2717 1125.67 63.4498L1125.36 62.4985L1125.05 61.5472C1122.52 62.3681 1119.96 63.1899 1117.38 64.0121L1117.69 64.9648ZM1133.02 60.0001L1133.33 60.9501C1135.9 60.1044 1138.45 59.2603 1140.97 58.4182L1140.66 57.4695L1140.34 56.5209C1137.82 57.3621 1135.27 58.2053 1132.7 59.0501L1133.02 60.0001ZM1148.29 54.9066L1148.61 55.8538C1151.18 54.9843 1153.72 54.1177 1156.24 53.2545L1155.91 52.3087L1155.59 51.3628C1153.08 52.225 1150.54 53.0908 1147.97 53.9593L1148.29 54.9066ZM1163.53 49.6748L1163.86 50.6192C1166.43 49.7251 1168.97 48.8355 1171.47 47.9511L1171.14 47.0082L1170.81 46.0652C1168.31 46.9486 1165.77 47.8372 1163.21 48.7304L1163.53 49.6748ZM1178.74 44.3083L1179.07 45.2498C1181.64 44.3312 1184.17 43.4193 1186.66 42.5148L1186.32 41.5749L1185.97 40.6349C1183.49 41.5384 1180.96 42.4493 1178.4 43.3668L1178.74 44.3083ZM1193.88 38.8075L1194.23 39.7458C1196.79 38.8017 1199.31 37.8669 1201.78 36.9426L1201.43 36.0059L1201.08 35.0692C1198.61 35.9925 1196.09 36.9261 1193.53 37.8691L1193.88 38.8075ZM1208.96 33.1684L1209.32 34.1033C1211.89 33.1277 1214.4 32.1655 1216.86 31.218L1216.5 30.2849L1216.14 29.3518C1213.69 30.298 1211.17 31.259 1208.61 32.2334L1208.96 33.1684ZM1224.03 27.3631L1224.39 28.2942C1226.96 27.2873 1229.46 26.2998 1231.89 25.3334L1231.52 24.4044L1231.15 23.4753C1228.73 24.4402 1226.23 25.4263 1223.66 26.4319L1224.03 27.3631ZM1238.97 21.4126L1239.34 22.3393C1241.94 21.2858 1244.44 20.2623 1246.84 19.2715L1246.46 18.3474L1246.08 17.4232C1243.68 18.4122 1241.19 19.4339 1238.59 20.4858L1238.97 21.4126ZM1253.86 15.255L1254.25 16.1761C1256.89 15.0597 1259.37 13.9958 1261.69 12.989L1261.29 12.0718L1260.89 11.1545C1258.58 12.1585 1256.1 13.2199 1253.47 14.3339L1253.86 15.255ZM1268.66 8.81757L1269.07 9.72942C1270.36 9.14652 1271.58 8.59168 1272.72 8.06633L1272.3 7.15837L1271.88 6.25041C1270.75 6.77292 1269.54 7.32516 1268.25 7.90573L1268.66 8.81757Z" fill="#F4F1E5"/>
</svg>
