<svg width="69" height="69" viewBox="0 0 69 69" fill="none" xmlns="http://www.w3.org/2000/svg">
<path d="M8.86375 43.795L19.2115 55.5677L54.4386 57.837L58.7603 47.0093L8.86375 43.795Z" stroke="#F4F1E5" stroke-width="2" stroke-linecap="round" stroke-linejoin="round"/>
<path d="M46.2405 14.4351L46.1009 16.6025L44.2025 46.0716" stroke="#F4F1E5" stroke-width="2" stroke-linecap="round" stroke-linejoin="round"/>
<path d="M31.0958 45.2272L30.672 44.2658C28.9781 40.3151 28.825 35.8732 30.2431 31.8152C31.6611 27.7572 34.5474 24.3774 38.3333 22.3416L45.9966 18.2209" stroke="#F4F1E5" stroke-width="2" stroke-linecap="round" stroke-linejoin="round"/>
<path d="M20.017 44.5135L23.5797 44.743C22.8113 42.9427 22.2032 41.0781 21.7623 39.1709C21.3156 37.1062 21.2895 34.9726 21.6856 32.8976C22.0817 30.8225 22.8918 28.8485 24.0676 27.0935C25.2434 25.3384 26.7607 23.8383 28.5291 22.6826C30.2974 21.5269 32.2805 20.7393 34.3599 20.367L45.9966 18.2209" stroke="#F4F1E5" stroke-width="2" stroke-linecap="round" stroke-linejoin="round"/>
</svg>
