<svg width="26" height="26" viewBox="0 0 26 26" fill="none" xmlns="http://www.w3.org/2000/svg">
<path d="M13.0454 5.97168C14.3185 4.6339 15.9826 4.02358 17.6284 4.16992C19.423 4.3298 21.1091 5.38074 22.1812 7.18359C23.9124 10.0953 23.4671 14.0686 21.0864 16.374L15.5229 21.7617L15.5171 21.7676L15.1196 22.1426C13.9368 23.2608 12.0643 23.2605 10.8813 22.1426L10.4771 21.7607L10.4702 21.7549L4.91455 16.374C2.53363 14.0685 2.08839 10.0955 3.81982 7.18359C4.89198 5.3807 6.57785 4.32965 8.37256 4.16992C10.0183 4.02374 11.6825 4.63388 12.9556 5.97168C12.9673 5.98391 12.9835 5.99121 13.0005 5.99121C13.0174 5.99107 13.0337 5.98396 13.0454 5.97168ZM17.4956 5.66406C16.3224 5.55972 15.1024 5.98657 14.1323 7.00586C13.8375 7.31569 13.4282 7.49107 13.0005 7.49121C12.5728 7.49121 12.1636 7.31564 11.8687 7.00586C10.8987 5.98656 9.6785 5.55989 8.50537 5.66406C7.22585 5.77794 5.9544 6.53033 5.10986 7.9502C3.71281 10.2997 4.10473 13.5028 5.95752 15.2969L11.5142 20.6768H11.5132L11.9116 21.0527L12.0288 21.1533C12.6357 21.6222 13.5225 21.5886 14.0894 21.0527L14.48 20.6836L20.0435 15.2969C21.896 13.5028 22.2879 10.2996 20.8911 7.9502C20.0467 6.53038 18.775 5.77809 17.4956 5.66406Z" fill="#201811"/>
</svg>
