<svg width="32" height="32" viewBox="0 0 32 32" fill="none" xmlns="http://www.w3.org/2000/svg">
<path d="M16.0001 6.06104C23.0366 6.06132 27.0161 14.1327 22.7316 19.7144L19.0519 24.5083C17.512 26.514 14.4883 26.514 12.9484 24.5083L9.26868 19.7144C4.98415 14.1326 8.96354 6.06121 16.0001 6.06104ZM16.0001 7.56104C10.2072 7.56121 6.93156 14.2062 10.4591 18.8013L14.1388 23.5942C15.0783 24.8178 16.923 24.818 17.8624 23.5942L21.5421 18.8013C25.0693 14.2062 21.7928 7.56132 16.0001 7.56104ZM16.0001 10.2944C18.2092 10.2945 20.0001 12.0853 20.0001 14.2944C19.9999 16.5033 18.209 18.2943 16.0001 18.2944C13.7911 18.2944 12.0004 16.5033 12.0001 14.2944C12.0001 12.0853 13.791 10.2944 16.0001 10.2944ZM16.0001 11.7944C14.6194 11.7944 13.5001 12.9137 13.5001 14.2944C13.5004 15.6749 14.6196 16.7944 16.0001 16.7944C17.3806 16.7943 18.4999 15.6749 18.5001 14.2944C18.5001 12.9138 17.3808 11.7945 16.0001 11.7944Z" fill="#201811"/>
</svg>
