<svg width="157" height="575" viewBox="0 0 157 575" fill="none" xmlns="http://www.w3.org/2000/svg">
<path d="M114.101 2.21907L114.812 1.51615L113.406 0.0936235L112.695 0.796551L113.398 1.50781L114.101 2.21907ZM155.945 571.409C156.457 571.202 156.704 570.619 156.497 570.107L153.118 561.765C152.911 561.253 152.328 561.007 151.816 561.214C151.304 561.421 151.057 562.004 151.265 562.516L154.268 569.931L146.853 572.934C146.341 573.141 146.094 573.724 146.301 574.236C146.508 574.748 147.092 574.995 147.603 574.788L155.945 571.409ZM113.398 1.50781L112.695 0.796551C111.733 1.74717 110.778 2.70037 109.83 3.65612L110.54 4.36036L111.25 5.0646C112.193 4.11357 113.143 3.16504 114.101 2.21907L113.398 1.50781ZM104.948 10.1107L104.224 9.42078C102.383 11.3523 100.569 13.2937 98.7828 15.2446L99.5203 15.9199L100.258 16.5953C102.035 14.6542 103.84 12.7226 105.672 10.8007L104.948 10.1107ZM94.2222 21.8236L93.4713 21.1632C91.691 23.1877 89.9393 25.2219 88.2157 27.2655L88.9801 27.9102L89.7446 28.555C91.4593 26.5219 93.202 24.4981 94.9732 22.4839L94.2222 21.8236ZM83.907 34.0529L83.1294 33.4241C81.46 35.4886 79.8186 37.5621 78.205 39.6443L78.9954 40.2569L79.7859 40.8694C81.391 38.7981 83.0238 36.7354 84.6845 34.6817L83.907 34.0529ZM74.14 46.6613L73.3367 46.0657C71.7429 48.215 70.1779 50.3731 68.6414 52.5396L69.4571 53.118L70.2728 53.6965C71.8011 51.5416 73.3578 49.395 74.9432 47.257L74.14 46.6613ZM64.9453 59.6248L64.1175 59.0637C62.6072 61.2919 61.1263 63.5284 59.6746 65.7729L60.5143 66.316L61.354 66.8591C62.7979 64.6267 64.2708 62.4021 65.773 60.1858L64.9453 59.6248ZM56.253 73.0629L55.4018 72.538C54.0066 74.8008 52.6403 77.0711 51.3028 79.3486L52.1651 79.855L53.0274 80.3614C54.3577 78.0963 55.7165 75.8383 57.1042 73.5877L56.253 73.0629ZM48.1817 86.8101L47.3086 86.3226C46.0044 88.6586 44.7296 91.0016 43.4841 93.3513L44.3676 93.8196L45.2512 94.288C46.4899 91.9512 47.7577 89.6209 49.0549 87.2976L48.1817 86.8101ZM40.7283 100.869L39.8348 100.419C38.6288 102.819 37.4525 105.225 36.3058 107.636L37.2089 108.066L38.112 108.495C39.2525 106.097 40.4223 103.704 41.6218 101.318L40.7283 100.869ZM33.8619 115.308L32.9496 114.898C31.8603 117.324 30.8002 119.756 29.769 122.192L30.6899 122.582L31.6108 122.972C32.6364 120.548 33.6907 118.13 34.7742 115.717L33.8619 115.308ZM27.6481 129.995L26.7188 129.625C25.7316 132.108 24.7738 134.595 23.8451 137.087L24.7822 137.436L25.7192 137.785C26.6428 135.307 27.5954 132.833 28.5773 130.364L27.6481 129.995ZM22.0868 144.913L21.1425 144.584C20.2605 147.116 19.408 149.652 18.5847 152.192L19.5359 152.5L20.4872 152.809C21.3061 150.283 22.1539 147.761 23.0312 145.242L22.0868 144.913ZM17.1596 160.108L16.202 159.82C15.4344 162.373 14.6958 164.929 13.9859 167.488L14.9495 167.755L15.9131 168.023C16.6192 165.478 17.3538 162.935 18.1173 160.396L17.1596 160.108ZM12.8941 175.483L11.925 175.236C11.2669 177.821 10.6376 180.408 10.0366 182.997L11.0107 183.223L11.9848 183.449C12.5826 180.874 13.2086 178.301 13.8631 175.73L12.8941 175.483ZM9.28996 191.007L8.31132 190.802C7.76146 193.419 7.24022 196.038 6.74722 198.658L7.72996 198.842L8.71271 199.027C9.20313 196.422 9.72164 193.817 10.2686 191.213L9.28996 191.007ZM6.33895 206.681L5.35257 206.517C4.91298 209.153 4.50159 211.789 4.11804 214.425L5.10761 214.569L6.09719 214.713C6.47876 212.091 6.88802 209.468 7.32533 206.846L6.33895 206.681ZM4.03955 222.479L3.04722 222.356C2.71804 224.999 2.41649 227.64 2.14219 230.281L3.13684 230.384L4.13148 230.487C4.40438 227.861 4.70439 225.232 5.03188 222.603L4.03955 222.479ZM2.39186 238.343L1.39531 238.26C1.17355 240.921 0.979145 243.579 0.811691 246.235L1.80971 246.298L2.80773 246.361C2.97434 243.718 3.16777 241.073 3.3884 238.426L2.39186 238.343ZM1.38842 254.247L0.389344 254.204C0.274447 256.878 0.18659 259.548 0.125368 262.215L1.1251 262.238L2.12484 262.261C2.18576 259.607 2.27318 256.95 2.3875 254.29L1.38842 254.247ZM1.02119 270.206L0.0211945 270.203C0.012799 272.872 0.0308413 275.536 0.0749096 278.196L1.07477 278.179L2.07464 278.163C2.03078 275.516 2.01283 272.865 2.02118 270.209L1.02119 270.206ZM1.28562 286.164L0.286281 286.201C0.382757 288.863 0.505113 291.521 0.652932 294.172L1.65138 294.116L2.64983 294.06C2.50273 291.422 2.38097 288.778 2.28497 286.128L1.28562 286.164ZM2.17386 302.088L1.17668 302.163C1.37731 304.827 1.60347 307.483 1.85473 310.133L2.85026 310.038L3.8458 309.944C3.59575 307.307 3.37069 304.663 3.17103 302.013L2.17386 302.088ZM3.6777 317.951L2.68417 318.064C2.98842 320.725 3.31785 323.379 3.67204 326.023L4.66319 325.89L5.65434 325.757C5.30186 323.126 4.97401 320.486 4.67123 317.837L3.6777 317.951ZM5.79683 333.777L4.80841 333.929C5.21374 336.568 5.64363 339.198 6.09762 341.818L7.08293 341.647L8.06825 341.476C7.61644 338.869 7.18862 336.252 6.78524 333.625L5.79683 333.777ZM8.52287 349.506L7.54102 349.696C8.04627 352.311 8.57547 354.915 9.12817 357.508L10.1062 357.299L11.0842 357.091C10.5342 354.51 10.0075 351.919 9.50471 349.316L8.52287 349.506ZM11.8495 365.106L10.8757 365.333C11.483 367.935 12.1141 370.524 12.7682 373.1L13.7375 372.853L14.7067 372.607C14.0557 370.044 13.4277 367.467 12.8233 364.879L11.8495 365.106ZM15.7721 380.551L14.8078 380.816C15.518 383.401 16.2514 385.972 17.0077 388.528L17.9666 388.244L18.9255 387.96C18.1729 385.417 17.443 382.859 16.7364 380.286L15.7721 380.551ZM20.2977 395.848L19.3445 396.15C20.1553 398.705 20.9889 401.244 21.8448 403.766L22.7918 403.445L23.7387 403.123C22.8871 400.614 22.0576 398.087 21.2508 395.545L20.2977 395.848ZM25.4308 410.973L24.4904 411.313C25.3983 413.822 26.3283 416.313 27.28 418.786L28.2133 418.427L29.1465 418.068C28.1997 415.608 27.2744 413.129 26.3711 410.633L25.4308 410.973ZM31.1651 425.869L30.2394 426.247C31.2478 428.715 32.2778 431.162 33.329 433.59L34.2467 433.193L35.1644 432.795C34.1186 430.38 33.0939 427.945 32.0908 425.49L31.1651 425.869ZM37.5049 440.504L36.5958 440.921C37.7108 443.353 38.8472 445.763 40.0044 448.15L40.9042 447.714L41.8041 447.278C40.6532 444.903 39.5229 442.506 38.4139 440.087L37.5049 440.504ZM44.4573 454.844L43.5672 455.3C44.7916 457.691 46.0371 460.058 47.3032 462.399L48.1828 461.923L49.0624 461.447C47.8035 459.12 46.565 456.766 45.3473 454.389L44.4573 454.844ZM52.033 468.853L51.1644 469.349C52.5017 471.692 53.8599 474.008 55.2382 476.295L56.0947 475.779L56.9512 475.263C55.5811 472.989 54.231 470.687 52.9015 468.357L52.033 468.853ZM60.277 482.534L59.4332 483.071C60.8775 485.342 62.342 487.582 63.8262 489.791L64.6562 489.234L65.4863 488.676C64.0116 486.481 62.5562 484.255 61.1208 481.998L60.277 482.534ZM69.1841 495.79L68.3687 496.368C69.9224 498.557 71.4958 500.711 73.0881 502.831L73.8877 502.231L74.6873 501.63C73.1058 499.525 71.543 497.385 69.9994 495.211L69.1841 495.79ZM78.7733 508.551L77.9908 509.174C79.6582 511.27 81.3447 513.328 83.0494 515.348L83.8136 514.703L84.5778 514.058C82.8857 512.053 81.2114 510.01 79.5558 507.929L78.7733 508.551ZM89.0695 520.743L88.3253 521.411C90.1118 523.402 91.9166 525.351 93.739 527.257L94.4618 526.566L95.1846 525.875C93.377 523.984 91.5864 522.05 89.8138 520.075L89.0695 520.743ZM100.099 532.27L99.4002 532.985C101.312 534.855 103.242 536.678 105.188 538.453L105.862 537.715L106.536 536.976C104.607 535.216 102.694 533.409 100.799 531.555L100.099 532.27ZM111.89 543.013L111.244 543.777C113.287 545.506 115.348 547.183 117.424 548.806L118.04 548.018L118.656 547.23C116.6 545.623 114.56 543.963 112.536 542.25L111.89 543.013ZM124.461 552.826L123.879 553.639C126.059 555.201 128.256 556.704 130.467 558.146L131.013 557.309L131.56 556.471C129.373 555.045 127.201 553.559 125.044 552.013L124.461 552.826ZM137.822 561.526L137.316 562.388C139.635 563.75 141.969 565.044 144.316 566.269L144.779 565.383L145.242 564.497C142.925 563.287 140.62 562.009 138.328 560.664L137.822 561.526ZM151.955 568.892L151.54 569.802C152.75 570.354 153.963 570.888 155.18 571.403L155.57 570.483L155.96 569.562C154.76 569.054 153.564 568.527 152.37 567.983L151.955 568.892Z" fill="#737B6B"/>
</svg>
