<svg width="24" height="24" viewBox="0 0 24 24" fill="none" xmlns="http://www.w3.org/2000/svg">
<path d="M18 13C20.7614 13 23 15.2386 23 18C23 20.7614 20.7614 23 18 23C15.2386 23 13 20.7614 13 18C13 15.2386 15.2386 13 18 13ZM18 14.75C17.7239 14.75 17.5 14.9739 17.5 15.25V17.5H15.25C14.9739 17.5 14.75 17.7239 14.75 18C14.75 18.2761 14.9739 18.5 15.25 18.5H17.5V20.75C17.5 21.0261 17.7239 21.25 18 21.25C18.2761 21.25 18.5 21.0261 18.5 20.75V18.5H20.75C21.0261 18.5 21.25 18.2761 21.25 18C21.25 17.7239 21.0261 17.5 20.75 17.5H18.5V15.25C18.5 14.9739 18.2761 14.75 18 14.75ZM17.25 3C19.3211 3 21 4.67893 21 6.75V12.2334C20.5307 11.9887 20.0278 11.8005 19.5 11.6758V6.75C19.5 5.50736 18.4926 4.5 17.25 4.5H6.75C5.50736 4.5 4.5 5.50736 4.5 6.75V13.6211L6.47363 11.5439C7.57427 10.3854 9.42798 10.4054 10.5029 11.5879L12.793 14.1074C12.479 14.5268 12.2142 14.9855 12.0078 15.4746L9.39258 12.5967C8.90394 12.0594 8.06176 12.0506 7.56152 12.5771L4.5 15.7988V17.25C4.5 18.4926 5.50736 19.5 6.75 19.5H11.6758C11.8005 20.0278 11.9887 20.5307 12.2334 21H6.75C4.67893 21 3 19.3211 3 17.25V6.75C3 4.67893 4.67893 3 6.75 3H17.25ZM15.25 6.25C16.6307 6.25 17.75 7.36929 17.75 8.75C17.75 10.1307 16.6307 11.25 15.25 11.25C13.8693 11.25 12.75 10.1307 12.75 8.75C12.75 7.36929 13.8693 6.25 15.25 6.25ZM15.25 7.75C14.6977 7.75 14.25 8.19771 14.25 8.75C14.25 9.30228 14.6977 9.75 15.25 9.75C15.8023 9.75 16.25 9.30228 16.25 8.75C16.25 8.19772 15.8023 7.75 15.25 7.75Z" fill="#1F1F1F"/>
</svg>
