<svg width="65" height="65" viewBox="0 0 65 65" fill="none" xmlns="http://www.w3.org/2000/svg">
<rect width="65" height="65" rx="32.5" fill="white" fill-opacity="0.5"/>
<path d="M23.8686 17.5084C24.4127 16.9647 25.2953 16.9646 25.8393 17.5084C26.3833 18.0524 26.383 18.935 25.8393 19.4791L19.5727 25.7438C19.7553 25.6559 19.96 25.6061 20.1762 25.6061H38.7534C44.909 25.6063 49.8988 30.5969 49.8989 36.7526C49.8988 42.9083 44.909 47.8988 38.7534 47.8991H31.3227C30.5532 47.8991 29.9292 47.2749 29.9291 46.5055C29.9292 45.7361 30.5533 45.1119 31.3227 45.1119H38.7534C43.37 45.1117 47.1127 41.3693 47.1127 36.7526C47.1127 32.1359 43.37 28.3934 38.7534 28.3932H20.1762C20.1133 28.3932 20.0514 28.3876 19.9907 28.3795L25.8393 34.2282C26.3831 34.7721 26.3829 35.6538 25.8393 36.1979C25.2952 36.742 24.4127 36.742 23.8686 36.1979L15.5092 27.8385C14.9652 27.2944 14.9651 26.4119 15.5092 25.8678L23.8686 17.5084ZM18.4643 26.8532L18.7953 27.1842C18.7874 27.1238 18.7827 27.0622 18.7827 26.9996C18.7827 26.7829 18.833 26.5781 18.9213 26.3951L18.4643 26.8532Z" fill="#7A7872"/>
</svg>
