<svg width="92" height="114" viewBox="0 0 92 114" fill="none" xmlns="http://www.w3.org/2000/svg">
<path d="M36.3656 106.8C39.4629 109.366 42.6931 111.711 46 114C49.314 111.741 52.5285 109.339 55.6344 106.8C60.812 102.531 65.6847 97.9029 70.2164 92.9489C80.6636 81.4791 92 64.8518 92 46.1871C92 40.1217 90.8102 34.1157 88.4985 28.5121C86.1867 22.9084 82.7984 17.8168 78.5269 13.5279C74.2554 9.23902 69.1844 5.8369 63.6034 3.51578C58.0225 1.19466 52.0408 0 46 0C39.9592 0 33.9775 1.19466 28.3966 3.51578C22.8156 5.8369 17.7446 9.23902 13.4731 13.5279C9.20159 17.8168 5.81326 22.9084 3.50154 28.5121C1.18982 34.1157 -9.0015e-08 40.1217 0 46.1871C0 64.8518 11.3364 81.474 21.7836 92.9489C26.3152 97.9047 31.1878 102.53 36.3656 106.8ZM46 62.8658C41.5945 62.8658 37.3694 61.1085 34.2542 57.9807C31.139 54.8528 29.3889 50.6105 29.3889 46.1871C29.3889 41.7636 31.139 37.5213 34.2542 34.3935C37.3694 31.2656 41.5945 29.5084 46 29.5084C50.4055 29.5084 54.6306 31.2656 57.7458 34.3935C60.861 37.5213 62.6111 41.7636 62.6111 46.1871C62.6111 50.6105 60.861 54.8528 57.7458 57.9807C54.6306 61.1085 50.4055 62.8658 46 62.8658Z" fill="#737B6B"/>
</svg>
