<svg width="60" height="60" viewBox="0 0 60 60" fill="none" xmlns="http://www.w3.org/2000/svg">
<circle cx="30" cy="30" r="30" fill="white" fill-opacity="0.5"/>
<path d="M41 28.5C41.8284 28.5 42.5 29.1716 42.5 30C42.5 30.8284 41.8284 31.5 41 31.5L41 30L41 28.5ZM17.9393 31.0607C17.3536 30.4749 17.3536 29.5251 17.9393 28.9393L27.4853 19.3934C28.0711 18.8076 29.0208 18.8076 29.6066 19.3934C30.1924 19.9792 30.1924 20.9289 29.6066 21.5147L21.1213 30L29.6066 38.4853C30.1924 39.0711 30.1924 40.0208 29.6066 40.6066C29.0208 41.1924 28.0711 41.1924 27.4853 40.6066L17.9393 31.0607ZM41 30L41 31.5L19 31.5L19 30L19 28.5L41 28.5L41 30Z" fill="#7A7872"/>
</svg>
