<svg width="343" height="367" viewBox="0 0 343 367" fill="none" xmlns="http://www.w3.org/2000/svg">
<path d="M341.52 4.79159L342.513 4.90931L342.748 2.92322L341.755 2.8055L341.637 3.79854L341.52 4.79159ZM15.6299 366.113C16.1423 366.319 16.7247 366.07 16.9306 365.558L20.2856 357.207C20.4915 356.694 20.2429 356.112 19.7305 355.906C19.218 355.7 18.6356 355.949 18.4298 356.461L15.4475 363.885L8.02415 360.902C7.51168 360.696 6.92935 360.945 6.72345 361.457C6.51758 361.97 6.76612 362.552 7.2786 362.758L15.6299 366.113ZM341.637 3.79854L341.755 2.8055C340.394 2.64409 339.036 2.49051 337.682 2.34469L337.574 3.33894L337.467 4.33319C338.814 4.47825 340.165 4.63102 341.52 4.79159L341.637 3.79854ZM329.516 2.55887L329.601 1.56253C326.923 1.33257 324.259 1.13321 321.61 0.964008L321.546 1.96197L321.482 2.95994C324.117 3.12821 326.766 3.32648 329.43 3.5552L329.516 2.55887ZM313.514 1.53916L313.555 0.540009C310.836 0.427645 308.134 0.347283 305.447 0.298408L305.429 1.29824L305.411 2.29808C308.082 2.34667 310.769 2.42657 313.473 2.5383L313.514 1.53916ZM297.442 1.24573L297.437 0.245743C294.724 0.259632 292.028 0.30589 289.35 0.383961L289.379 1.38354L289.408 2.38311C292.071 2.30551 294.75 2.25953 297.447 2.24572L297.442 1.24573ZM281.316 1.71713L281.262 0.718569C278.584 0.86237 275.923 1.03824 273.28 1.24562L273.359 2.24256L273.437 3.23949C276.063 3.03341 278.708 2.85861 281.369 2.7157L281.316 1.71713ZM265.295 2.97845L265.191 1.98383C262.501 2.2641 259.829 2.57731 257.176 2.92283L257.305 3.91446L257.434 4.90608C260.07 4.56277 262.725 4.25156 265.399 3.97307L265.295 2.97845ZM249.395 5.04898L249.24 4.06104C246.55 4.48277 243.879 4.93805 241.229 5.4262L241.41 6.40966L241.591 7.39311C244.224 6.90819 246.877 6.45589 249.55 6.03691L249.395 5.04898ZM233.546 7.96682L233.339 6.98855C230.693 7.54934 228.069 8.14319 225.465 8.76939L225.699 9.74166L225.933 10.7139C228.519 10.092 231.126 9.50211 233.754 8.94508L233.546 7.96682ZM217.886 11.7347L217.626 10.7693C215.034 11.4685 212.464 12.2002 209.916 12.9635L210.203 13.9214L210.49 14.8794C213.02 14.1213 215.573 13.3947 218.147 12.7002L217.886 11.7347ZM202.482 16.3523L202.169 15.4028C199.608 16.2489 197.07 17.1273 194.555 18.0372L194.895 18.9776L195.235 19.9179C197.733 19.0144 200.253 18.1421 202.796 17.3018L202.482 16.3523ZM187.374 21.819L187.007 20.8886C184.489 21.8807 181.995 22.9047 179.525 23.9598L179.918 24.8794L180.311 25.799C182.763 24.7513 185.24 23.7345 187.74 22.7494L187.374 21.819ZM172.602 28.1276L172.183 27.2195C169.72 28.3552 167.281 29.5223 164.868 30.7197L165.313 31.6155L165.757 32.5113C168.153 31.3223 170.575 30.1635 173.021 29.0358L172.602 28.1276ZM158.173 35.2851L157.703 34.4023C155.318 35.6714 152.959 36.9705 150.625 38.2988L151.12 39.1678L151.615 40.0369C153.932 38.718 156.275 37.428 158.643 36.1679L158.173 35.2851ZM144.183 43.2476L143.664 42.393C141.362 43.7911 139.087 45.218 136.838 46.6727L137.381 47.5123L137.924 48.352C140.157 46.9075 142.417 45.4906 144.702 44.1023L144.183 43.2476ZM130.674 51.9862L130.108 51.1622C127.891 52.6864 125.702 54.238 123.54 55.8159L124.13 56.6236L124.719 57.4314C126.866 55.8644 129.04 54.3237 131.241 52.8102L130.674 51.9862ZM117.683 61.4689L117.071 60.678C114.94 62.3265 112.837 64.0009 110.763 65.7004L111.396 66.474L112.03 67.2476C114.09 65.5598 116.179 63.8969 118.295 62.2598L117.683 61.4689ZM105.241 71.6598L104.586 70.904C102.548 72.6701 100.539 74.4606 98.5579 76.2746L99.2332 77.012L99.9086 77.7495C101.876 75.9479 103.872 74.1696 105.896 72.4155L105.241 71.6598ZM93.3813 82.52L92.686 81.8013C90.7457 83.678 88.8349 85.5776 86.9537 87.4989L87.6682 88.1985L88.3827 88.8981C90.2513 86.9897 92.1493 85.1029 94.0765 83.2388L93.3813 82.52ZM82.1302 94.0089L81.3972 93.3288C79.5596 95.3094 77.7523 97.311 75.9753 99.3325L76.7264 99.9927L77.4775 100.653C79.2427 98.6448 81.038 96.6565 82.8633 94.6891L82.1302 94.0089ZM71.504 106.096L70.7356 105.456C69.0081 107.53 67.3115 109.623 65.6458 111.734L66.4309 112.354L67.216 112.973C68.8707 110.876 70.5562 108.796 72.2724 106.736L71.504 106.096ZM61.5346 118.73L60.7335 118.132C59.1196 120.292 57.5372 122.469 55.9866 124.663L56.8031 125.24L57.6196 125.817C59.1602 123.638 60.7323 121.475 62.3357 119.329L61.5346 118.73ZM52.2439 131.87L51.4126 131.315C49.9153 133.554 48.4503 135.809 47.0177 138.077L47.8632 138.611L48.7087 139.145C50.1321 136.891 51.5876 134.651 53.0752 132.426L52.2439 131.87ZM43.6516 145.476L42.7925 144.964C41.4151 147.277 40.0706 149.602 38.7592 151.939L39.6312 152.428L40.5033 152.917C41.8063 150.595 43.1421 148.285 44.5107 145.988L43.6516 145.476ZM35.778 159.509L34.8934 159.042C33.6386 161.421 32.4176 163.811 31.2305 166.211L32.1268 166.654L33.0231 167.098C34.2025 164.714 35.4157 162.339 36.6625 159.975L35.778 159.509ZM28.6441 173.931L27.7365 173.511C26.6062 175.954 25.5107 178.406 24.4502 180.865L25.3684 181.261L26.2867 181.657C27.3403 179.214 28.4287 176.778 29.5517 174.351L28.6441 173.931ZM22.2733 188.705L21.345 188.334C20.3435 190.835 19.378 193.342 18.4485 195.855L19.3864 196.202L20.3243 196.549C21.2476 194.053 22.2068 191.562 23.2017 189.077L22.2733 188.705ZM16.6921 203.795L15.7453 203.473C14.8776 206.027 14.0471 208.584 13.2539 211.143L14.2091 211.439L15.1643 211.735C15.9521 209.193 16.7771 206.653 17.6389 204.117L16.6921 203.795ZM11.9309 219.163L10.968 218.893C10.2399 221.492 9.55042 224.093 8.89957 226.693L9.86964 226.936L10.8397 227.178C11.486 224.596 12.1708 222.014 12.8939 219.432L11.9309 219.163ZM8.0256 234.77L7.04906 234.555C6.46746 237.193 5.92591 239.829 5.42458 242.463L6.40695 242.65L7.3893 242.837C7.887 240.223 8.42466 237.605 9.00217 234.985L8.0256 234.77ZM5.01845 250.575L4.03102 250.417C3.60389 253.087 3.21857 255.752 2.87521 258.41L3.86697 258.538L4.85874 258.666C5.19951 256.028 5.58195 253.383 6.00591 250.733L5.01845 250.575ZM2.95954 266.532L1.96429 266.435C1.70108 269.127 1.48157 271.811 1.30597 274.485L2.3038 274.55L3.30166 274.616C3.47587 271.963 3.69362 269.301 3.95479 266.63L2.95954 266.532ZM1.90785 282.588L0.90838 282.556C0.819947 285.26 0.777354 287.951 0.780792 290.629L1.78079 290.628L2.78079 290.627C2.77739 287.972 2.81963 285.302 2.90732 282.621L1.90785 282.588ZM1.93213 298.68L0.932798 298.716C1.03155 301.418 1.17843 304.105 1.37368 306.773L2.37101 306.7L3.36834 306.627C3.17492 303.983 3.02933 301.321 2.93146 298.643L1.93213 298.68ZM3.11126 314.727L2.11742 314.838C2.4171 317.523 2.76741 320.187 3.1686 322.829L4.15727 322.679L5.14593 322.529C4.74878 319.914 4.40188 317.275 4.10509 314.616L3.11126 314.727ZM5.53307 330.632L4.55148 330.823C5.06722 333.473 5.63629 336.097 6.25894 338.694L7.23138 338.46L8.20383 338.227C7.58797 335.659 7.02498 333.063 6.51465 330.441L5.53307 330.632ZM9.29147 346.27L8.33064 346.547C9.08052 349.147 9.88689 351.716 10.7501 354.251L11.6967 353.929L12.6433 353.606C11.7905 351.101 10.9936 348.563 10.2523 345.993L9.29147 346.27ZM14.4802 361.487L13.5507 361.856C14.0467 363.106 14.5575 364.347 15.0829 365.578L16.0026 365.185L16.9224 364.793C16.4037 363.577 15.8994 362.353 15.4096 361.119L14.4802 361.487Z" fill="#737B6B"/>
</svg>
