<svg width="60" height="43" viewBox="0 0 60 43" fill="none" xmlns="http://www.w3.org/2000/svg">
<path d="M30 42.5C28.25 42.5 26.7708 41.8958 25.5625 40.6875C24.3542 39.4792 23.75 38 23.75 36.25C23.75 34.5 24.3542 33.0208 25.5625 31.8125C26.7708 30.6042 28.25 30 30 30C31.75 30 33.2292 30.6042 34.4375 31.8125C35.6458 33.0208 36.25 34.5 36.25 36.25C36.25 38 35.6458 39.4792 34.4375 40.6875C33.2292 41.8958 31.75 42.5 30 42.5ZM15.875 28.375L10.625 23C13.0833 20.5417 15.9692 18.5942 19.2825 17.1575C22.5958 15.7208 26.1683 15.0017 30 15C33.8317 14.9983 37.405 15.7275 40.72 17.1875C44.035 18.6475 46.92 20.6267 49.375 23.125L44.125 28.375C42.2917 26.5417 40.1667 25.1042 37.75 24.0625C35.3333 23.0208 32.75 22.5 30 22.5C27.25 22.5 24.6667 23.0208 22.25 24.0625C19.8333 25.1042 17.7083 26.5417 15.875 28.375ZM5.25 17.75L0 12.5C3.83333 8.58333 8.3125 5.52083 13.4375 3.3125C18.5625 1.10417 24.0833 0 30 0C35.9167 0 41.4375 1.10417 46.5625 3.3125C51.6875 5.52083 56.1667 8.58333 60 12.5L54.75 17.75C51.5417 14.5417 47.8233 12.0317 43.595 10.22C39.3667 8.40833 34.835 7.50167 30 7.5C25.165 7.49833 20.6342 8.405 16.4075 10.22C12.1808 12.035 8.46167 14.545 5.25 17.75Z" fill="#41453D"/>
</svg>
