<svg width="221" height="42" viewBox="0 0 221 42" fill="none" xmlns="http://www.w3.org/2000/svg">
<path d="M16.8273 21.2768C16.7118 18.274 18.8965 17.4752 20.0033 17.4512C21.2064 17.4512 23.5258 18.2163 23.1793 21.2768C22.8329 24.3373 20.9176 24.91 20.0033 24.8137C18.9928 24.8859 16.9428 24.2796 16.8273 21.2768Z" fill="#201811"/>
<path d="M23.6124 25.2468C20.3787 27.9031 17.3085 26.3536 16.1777 25.2468C15.7205 24.7897 14.7052 23.6155 14.3009 22.5761C13.7957 21.2768 12.6407 20.8437 11.7024 21.2768C10.764 21.7099 10.4753 22.7926 10.9084 23.8754C11.3415 24.9581 13.2904 26.5461 14.5175 27.4845C15.7446 28.4228 15.6724 30.5883 15.7446 31.0214C15.8168 31.4545 15.1671 37.8065 15.0228 39.2501C14.8784 40.6938 15.4559 41.4878 16.8273 41.4878C18.1988 41.4878 18.6319 40.4772 18.6319 39.2501C18.6319 38.0231 19.065 36.1463 19.2815 35.7854C19.498 35.4245 20.2199 35.2801 20.5808 35.7854C20.9417 36.2907 21.2304 38.0952 21.2304 39.2501C21.2304 40.4051 21.3026 41.4156 23.1793 41.2712C24.6807 41.1558 24.8155 39.4426 24.6952 38.6005C24.5267 37.1328 24.2043 33.6055 24.2621 31.2379C24.3198 28.8704 25.3929 27.4604 25.9223 27.0514C26.62 26.3777 28.1166 24.857 28.5208 24.1641C29.0261 23.2979 28.9539 21.6377 28.0155 21.2768C27.0772 20.9159 26.3553 20.7715 25.3448 22.5039C24.3342 24.2363 25.3448 22.6483 23.6124 25.2468Z" fill="#201811"/>
<path d="M12.352 18.8225C11.3703 17.9563 12.0392 16.7293 12.4964 16.224C12.352 16.3202 12.453 16.1374 15.4558 13.7698C18.4586 11.4022 22.1206 12.4224 23.3959 13.3367C24.1417 13.7939 25.8934 15.0113 26.9328 16.224C27.9722 17.4366 27.5102 18.3654 27.1493 18.6782C26.62 19.015 25.3736 19.3422 24.623 17.9563C23.8723 16.5705 22.2891 15.4059 21.5913 14.9969C20.9417 14.8285 19.3103 14.6215 17.9822 15.1413C16.654 15.661 15.5039 17.2345 15.0949 17.9563C14.5896 18.606 13.3337 19.6887 12.352 18.8225Z" fill="#201811"/>
<path d="M12.352 37.229C14.8351 39.943 12.4242 39.8035 10.9084 39.3944C9.05568 38.6726 4.97499 36.5649 3.4736 33.9086C1.59686 30.5882 0.225404 27.5566 0.00885762 20.5549C-0.164379 14.9536 2.2465 10.1848 3.4736 8.50053C4.41197 6.69598 7.9922 2.66823 14.8062 0.993602C21.6202 -0.681021 27.9433 2.41318 30.2532 4.16961C33.357 6.55162 39.6368 12.7737 39.9256 18.606C40.2865 25.8964 39.3481 27.2679 36.8217 31.8875C34.2954 36.5072 29.1704 38.023 28.6652 38.3117C28.1599 38.6004 23.7568 38.2395 27.8712 36.0741C31.1627 34.3417 34.1029 30.5401 35.1615 28.8559C36.1721 26.8829 37.7168 21.4356 35.8112 15.43C33.9056 9.42446 28.3764 5.70949 25.8501 4.6027C22.8184 3.73652 15.6291 2.6971 11.1249 5.46889C5.4947 8.93362 5.27815 11.2434 3.83451 14.8526C2.67959 17.7398 2.87208 23.2257 3.11269 25.6077C3.01644 26.6663 3.51691 29.5199 6.2887 32.465C9.75344 36.1462 7.87671 34.4861 12.352 37.229Z" fill="#201811"/>
<path d="M26.7163 30.5883C24.9508 32.5119 26.6491 32.7549 27.7268 32.465C29.044 31.9534 30.285 31.3882 31.3525 29.5056C32.6869 27.1522 34.5745 25.9505 34.7285 20.9881C34.851 17.0402 32.2541 13.4875 31.3672 12.2742L31.3525 12.2541C30.6853 10.9751 27.9519 8.4604 23.1072 7.2735C18.2624 6.08661 14.2113 7.53809 12.569 8.78296C10.3622 10.4712 5.32688 13.7699 5.06161 19.1114C4.80501 24.2784 5.64739 25.0043 7.44362 28.2785C9.23986 31.5527 11.5882 32.733 11.9911 32.8259C12.9295 33.0425 14.7316 31.5771 12.4964 29.1447C10.0422 26.4739 10.5783 27.1624 9.82563 25.9686C9.10714 24.5703 7.72432 21.5633 9.07919 17.3068C10.4341 13.0504 12.4664 11.3061 14.2626 10.5217C16.4181 9.90778 21.2762 8.91808 24.4786 10.8826C28.4817 13.3382 29.9811 14.1035 30.6141 16.7638C31.2471 19.4241 31.3626 21.4653 31.1916 23.1535C30.9028 24.0919 31.136 24.5972 29.1705 27.4123C27.1162 30.3544 27.2462 30.0108 26.7163 30.5883Z" fill="#201811"/>
<path d="M64.9531 15.4922C65.7656 15.4922 66.5625 15.5859 67.3438 15.7734C68.1406 15.9609 68.8984 16.2422 69.6172 16.6172C70.3359 16.9766 70.9688 17.4609 71.5156 18.0703C72.0781 18.6797 72.3828 19.4062 72.4297 20.25V21.2344V28.7109C72.3359 29.6484 71.8203 30.1562 70.8828 30.2344C70.4453 30.2344 70.0625 30.0938 69.7344 29.8125C69.4219 29.5156 69.2656 29.1484 69.2656 28.7109V20.9766C69.2344 20.4922 69.0469 20.0938 68.7031 19.7812C68.375 19.4531 68 19.1953 67.5781 19.0078C67.1719 18.8203 66.7422 18.6797 66.2891 18.5859C65.8516 18.4922 65.4062 18.4453 64.9531 18.4453C64.5 18.4453 64.0469 18.4922 63.5938 18.5859C63.1562 18.6797 62.7266 18.8203 62.3047 19.0078C61.8984 19.1953 61.5234 19.4531 61.1797 19.7812C60.8516 20.0938 60.6719 20.4922 60.6406 20.9766V28.7109C60.5625 29.6484 60.0547 30.1562 59.1172 30.2344C58.6797 30.2344 58.2969 30.0938 57.9688 29.8125C57.6562 29.5156 57.5 29.1484 57.5 28.7109V21.2344V20.25C57.5469 19.4062 57.8438 18.6797 58.3906 18.0703C58.9375 17.4609 59.5703 16.9766 60.2891 16.6172C61.0078 16.2422 61.7578 15.9609 62.5391 15.7734C63.3359 15.5859 64.1406 15.4922 64.9531 15.4922ZM87.9688 16.125C88.7656 16.1406 89.4766 16.3906 90.1016 16.875C90.7266 17.3594 91.2266 17.9375 91.6016 18.6094C91.9922 19.2812 92.2812 19.9922 92.4688 20.7422C92.6562 21.4922 92.75 22.2578 92.75 23.0391C92.75 24.0703 92.5859 25.0859 92.2578 26.0859C91.9453 27.0703 91.4219 27.9453 90.6875 28.7109C89.9688 29.4766 89.0625 29.8906 87.9688 29.9531H79.7891C78.6953 29.9062 77.7812 29.5 77.0469 28.7344C76.3125 27.9688 75.7891 27.0859 75.4766 26.0859C75.1797 25.0859 75.0312 24.0703 75.0312 23.0391C75.0312 22.0078 75.1875 21 75.5 20.0156C75.8125 19.0156 76.3281 18.1328 77.0469 17.3672C77.7812 16.5859 78.6953 16.1719 79.7891 16.125H80.2344H87.5234H87.9688ZM87.1719 26.8125C87.7656 26.7812 88.2578 26.5625 88.6484 26.1562C89.0547 25.7344 89.3438 25.25 89.5156 24.7031C89.6875 24.1562 89.7734 23.6016 89.7734 23.0391C89.7734 22.4766 89.6797 21.9297 89.4922 21.3984C89.3203 20.8516 89.0391 20.3672 88.6484 19.9453C88.2578 19.5234 87.7656 19.2969 87.1719 19.2656H80.5156C79.9219 19.2969 79.4297 19.5234 79.0391 19.9453C78.6484 20.3672 78.3594 20.8516 78.1719 21.3984C78 21.9297 77.9141 22.4766 77.9141 23.0391C77.9141 23.6016 78 24.1562 78.1719 24.7031C78.3438 25.25 78.625 25.7344 79.0156 26.1562C79.4219 26.5625 79.9219 26.7812 80.5156 26.8125H87.1719ZM100.273 15.4922C100.82 15.4922 101.352 15.5859 101.867 15.7734C102.398 15.9609 102.906 16.2344 103.391 16.5938C103.469 16.6719 103.555 16.75 103.648 16.8281C103.727 16.75 103.812 16.6719 103.906 16.5938C104.391 16.2344 104.891 15.9609 105.406 15.7734C105.938 15.5859 106.469 15.4922 107 15.4922C107.547 15.4922 108.078 15.5859 108.594 15.7734C109.125 15.9609 109.625 16.2422 110.094 16.6172C110.578 16.9766 111 17.4609 111.359 18.0703C111.734 18.6797 111.922 19.4062 111.922 20.25V28.7109C111.828 29.6484 111.312 30.1562 110.375 30.2344C109.938 30.2344 109.555 30.0938 109.227 29.8125C108.914 29.5156 108.758 29.1484 108.758 28.7109V20.4375C108.758 20.0625 108.688 19.75 108.547 19.5C108.406 19.2344 108.25 19.0312 108.078 18.8906C107.906 18.7344 107.727 18.625 107.539 18.5625C107.352 18.4844 107.164 18.4453 106.977 18.4453C106.789 18.4453 106.602 18.4844 106.414 18.5625C106.242 18.625 106.07 18.7344 105.898 18.8906C105.727 19.0312 105.57 19.2344 105.43 19.5C105.289 19.75 105.211 20.0625 105.195 20.4375V28.7109C105.102 29.6484 104.586 30.1562 103.648 30.2344C103.211 30.2344 102.828 30.0938 102.5 29.8125C102.188 29.5156 102.031 29.1484 102.031 28.7109V20.4375C102.031 20.0625 101.961 19.75 101.82 19.5C101.68 19.2344 101.523 19.0312 101.352 18.8906C101.18 18.7344 101 18.625 100.812 18.5625C100.625 18.4844 100.438 18.4453 100.25 18.4453C100.062 18.4453 99.875 18.4844 99.6875 18.5625C99.5156 18.625 99.3438 18.7344 99.1719 18.8906C99 19.0312 98.8438 19.2344 98.7031 19.5C98.5625 19.75 98.4844 20.0625 98.4688 20.4375V28.7109C98.3906 29.6484 97.8828 30.1562 96.9453 30.2344C96.5078 30.2344 96.125 30.0938 95.7969 29.8125C95.4844 29.5156 95.3281 29.1484 95.3281 28.7109V20.25C95.3594 19.4062 95.5547 18.6797 95.9141 18.0703C96.2734 17.4609 96.6953 16.9766 97.1797 16.6172C97.6641 16.2422 98.1641 15.9609 98.6797 15.7734C99.2109 15.5859 99.7422 15.4922 100.273 15.4922ZM120.148 26.3203C120.148 25.8828 120.297 25.5156 120.594 25.2188C120.906 24.9062 121.281 24.75 121.719 24.75H125.305L124.695 23.0156C124.445 22.375 124.195 21.7734 123.945 21.2109C123.711 20.6328 123.438 20.1094 123.125 19.6406C122.844 19.1719 122.523 18.9219 122.164 18.8906C121.789 18.9219 121.453 19.1719 121.156 19.6406C120.859 20.1094 120.586 20.6328 120.336 21.2109C120.102 21.7734 119.859 22.375 119.609 23.0156L117.383 29.1094C117.227 29.4375 117.023 29.7109 116.773 29.9297C116.539 30.1328 116.18 30.2344 115.695 30.2344C115.242 30.2344 114.867 30.0781 114.57 29.7656C114.289 29.4531 114.164 29.0781 114.195 28.6406C114.211 28.4375 114.258 28.25 114.336 28.0781L116.914 21.4219C117.633 19.6719 118.352 18.2578 119.07 17.1797C119.773 16.1172 120.805 15.5781 122.164 15.5625C123.508 15.5781 124.531 16.1172 125.234 17.1797C125.953 18.2266 126.672 19.6406 127.391 21.4219L129.969 28.0781C130.047 28.25 130.094 28.4375 130.109 28.6406C130.141 29.0781 130.008 29.4531 129.711 29.7656C129.43 30.0781 129.062 30.2344 128.609 30.2344C128.094 30.2344 127.711 30.1328 127.461 29.9297C127.227 29.7109 127.031 29.4375 126.875 29.1094L126.43 27.8906H121.719C121.281 27.8906 120.914 27.7344 120.617 27.4219C120.305 27.125 120.148 26.7578 120.148 26.3203ZM142.625 16.125C143.719 16.1875 144.617 16.6094 145.32 17.3906C146.023 18.1562 146.531 19.0312 146.844 20.0156C147.156 21 147.312 22.0078 147.312 23.0391C147.312 24.0703 147.156 25.0781 146.844 26.0625C146.547 27.0469 146.039 27.9297 145.32 28.7109C144.617 29.4766 143.719 29.8906 142.625 29.9531H134C133.578 29.9375 133.219 29.7891 132.922 29.5078C132.641 29.2109 132.492 28.8516 132.477 28.4297V22.6172C132.492 22.1797 132.656 21.8203 132.969 21.5391C133.281 21.2422 133.656 21.0938 134.094 21.0938C134.516 21.1094 134.875 21.2656 135.172 21.5625C135.469 21.8438 135.625 22.1953 135.641 22.6172V26.1797C135.641 26.6016 135.859 26.8125 136.297 26.8125H141.828C142.422 26.7812 142.914 26.5547 143.305 26.1328C143.695 25.7109 143.977 25.2344 144.148 24.7031C144.336 24.1562 144.43 23.6016 144.43 23.0391C144.43 22.4766 144.336 21.9297 144.148 21.3984C143.977 20.8516 143.695 20.3672 143.305 19.9453C142.914 19.5234 142.422 19.2969 141.828 19.2656H134C133.062 19.1875 132.555 18.6797 132.477 17.7422C132.477 17.3047 132.617 16.9297 132.898 16.6172C133.195 16.3047 133.562 16.1406 134 16.125H142.625ZM153.031 28.7578C152.938 29.6953 152.422 30.2031 151.484 30.2812C151.047 30.2812 150.664 30.1406 150.336 29.8594C150.023 29.5625 149.867 29.1953 149.867 28.7578V17.6484C149.883 17.2109 150.047 16.8516 150.359 16.5703C150.672 16.2734 151.047 16.125 151.484 16.125H152.633H155.516H161.305C161.398 16.125 161.492 16.1328 161.586 16.1484H161.727C162.82 16.1797 163.719 16.4297 164.422 16.8984C165.125 17.3672 165.633 17.9062 165.945 18.5156C166.258 19.1094 166.414 19.7109 166.414 20.3203C166.414 20.9453 166.258 21.5625 165.945 22.1719C165.648 22.7656 165.141 23.2969 164.422 23.7656C163.719 24.2344 162.82 24.4844 161.727 24.5156H157.602C157.727 25.2969 157.984 25.875 158.375 26.25C158.75 26.625 159.227 26.8125 159.805 26.8125H164.867C165.305 26.8281 165.664 26.9922 165.945 27.3047C166.242 27.6172 166.391 27.9922 166.391 28.4297C166.375 28.8516 166.219 29.2109 165.922 29.5078C165.641 29.7891 165.289 29.9375 164.867 29.9531H159.383C158.227 29.9688 157.18 29.5156 156.242 28.5938C155.305 27.6719 154.734 26.5781 154.531 25.3125C154.25 23.9062 154.109 23.1172 154.109 22.9453C154.109 22.5078 154.258 22.1406 154.555 21.8438C154.867 21.5312 155.242 21.375 155.68 21.375H161.867C162.164 21.3594 162.406 21.2969 162.594 21.1875C162.797 21.0625 162.945 20.9297 163.039 20.7891C163.133 20.6328 163.18 20.4766 163.18 20.3203C163.18 20.1641 163.133 20.0156 163.039 19.875C162.945 19.7188 162.797 19.5859 162.594 19.4766C162.406 19.3516 162.164 19.2812 161.867 19.2656H155.516H153.641C153.234 19.2812 153.031 19.4844 153.031 19.875V28.7578ZM168.453 28.3828C168.453 27.9453 168.602 27.5781 168.898 27.2812C169.211 26.9688 169.586 26.8125 170.023 26.8125H174.523V19.2656H170.023C169.586 19.2656 169.219 19.1094 168.922 18.7969C168.609 18.5 168.453 18.1328 168.453 17.6953C168.453 17.2578 168.602 16.8906 168.898 16.5938C169.211 16.2812 169.586 16.125 170.023 16.125H182.164C182.602 16.125 182.977 16.2734 183.289 16.5703C183.586 16.8828 183.734 17.2578 183.734 17.6953C183.734 18.1328 183.578 18.5078 183.266 18.8203C182.969 19.1172 182.602 19.2656 182.164 19.2656H177.688V26.8125H182.164C182.602 26.8125 182.977 26.9609 183.289 27.2578C183.586 27.5703 183.734 27.9453 183.734 28.3828C183.734 28.8203 183.578 29.1953 183.266 29.5078C182.969 29.8047 182.602 29.9531 182.164 29.9531H170.023C169.586 29.9531 169.219 29.7969 168.922 29.4844C168.609 29.1875 168.453 28.8203 168.453 28.3828ZM187.766 30.2344C187.344 30.2188 186.984 30.0703 186.688 29.7891C186.391 29.4922 186.234 29.1328 186.219 28.7109V22.875C186.234 21.7656 186.391 20.7188 186.688 19.7344C187 18.75 187.508 17.9219 188.211 17.25C188.93 16.5625 189.836 16.1875 190.93 16.125H199.977C200.398 16.1406 200.75 16.2969 201.031 16.5938C201.328 16.875 201.484 17.2266 201.5 17.6484C201.5 18.0859 201.352 18.4609 201.055 18.7734C200.773 19.0859 200.414 19.25 199.977 19.2656H191.727C191.133 19.2969 190.641 19.5234 190.25 19.9453C189.859 20.3672 189.609 20.8516 189.5 21.3984C189.406 21.9297 189.367 22.5156 189.383 23.1562V28.7109C189.367 29.1484 189.203 29.5156 188.891 29.8125C188.578 30.0938 188.203 30.2344 187.766 30.2344ZM190.484 24.0703C190.484 23.6328 190.641 23.2656 190.953 22.9688C191.25 22.6562 191.617 22.5 192.055 22.5H199.977C200.414 22.5 200.781 22.6562 201.078 22.9688C201.391 23.2656 201.547 23.6328 201.547 24.0703C201.547 24.5078 201.398 24.8828 201.102 25.1953C200.789 25.4922 200.414 25.6406 199.977 25.6406H192.055C191.617 25.6406 191.242 25.4922 190.93 25.1953C190.633 24.8828 190.484 24.5078 190.484 24.0703ZM203.234 17.6953C203.234 17.2578 203.383 16.8906 203.68 16.5938C203.992 16.2812 204.367 16.125 204.805 16.125H218.445C218.883 16.125 219.258 16.2734 219.57 16.5703C219.867 16.8828 220.016 17.2578 220.016 17.6953C220.016 18.1328 219.859 18.5078 219.547 18.8203C219.25 19.1172 218.883 19.2656 218.445 19.2656H213.219V28.7578C213.125 29.6953 212.609 30.2031 211.672 30.2812C211.234 30.2812 210.852 30.1406 210.523 29.8594C210.211 29.5625 210.055 29.1953 210.055 28.7578V19.2656H204.805C204.367 19.2656 204 19.1094 203.703 18.7969C203.391 18.5 203.234 18.1328 203.234 17.6953Z" fill="#201811"/>
</svg>
