<svg width="83" height="72" viewBox="0 0 83 72" fill="none" xmlns="http://www.w3.org/2000/svg">
<path d="M1.16972 52.5153L19.0727 70.0767L75.5504 69.5326L81.166 51.7446L1.16972 52.5153Z" stroke="#41453D" stroke-width="2" stroke-linecap="round" stroke-linejoin="round"/>
<path d="M57.3376 1.24756L57.3711 4.72242L57.8263 51.9686" stroke="#41453D" stroke-width="2" stroke-linecap="round" stroke-linejoin="round"/>
<path d="M36.8131 52.1715L36.0232 50.6876C32.8532 44.584 32.0838 37.5145 33.8667 30.8718C35.6495 24.2292 39.8553 18.495 45.6556 14.799L57.3961 7.31787" stroke="#41453D" stroke-width="2" stroke-linecap="round" stroke-linejoin="round"/>
<path d="M19.051 52.3426L24.7629 52.2876C23.324 49.5057 22.1332 46.6025 21.2042 43.6115C20.2473 40.3698 19.9535 36.9685 20.3401 33.6106C20.7268 30.2528 21.786 27.0073 23.4546 24.0679C25.1232 21.1284 27.367 18.5554 30.052 16.5022C32.737 14.4491 35.8081 12.958 39.0821 12.1179L57.3961 7.31787" stroke="#41453D" stroke-width="2" stroke-linecap="round" stroke-linejoin="round"/>
</svg>
