<svg width="65" height="64" viewBox="0 0 65 64" fill="none" xmlns="http://www.w3.org/2000/svg">
<path d="M7.5 42.7021L18.5831 53.7852H53.8833L57.5 42.7021H7.5Z" stroke="#41453D" stroke-width="2" stroke-linecap="round" stroke-linejoin="round"/>
<path d="M42.912 11V13.1719V42.7021" stroke="#41453D" stroke-width="2" stroke-linecap="round" stroke-linejoin="round"/>
<path d="M29.7781 42.7021L29.2934 41.7699C27.349 37.9363 26.9107 33.5134 28.0649 29.3727C29.2192 25.2319 31.8822 21.6736 35.5294 19.3986L42.912 14.7938" stroke="#41453D" stroke-width="2" stroke-linecap="round" stroke-linejoin="round"/>
<path d="M18.6763 42.7021H22.2464C21.3639 40.9549 20.6371 39.1333 20.0745 37.2584C19.4961 35.2266 19.3329 33.0991 19.5947 31.0029C19.8566 28.9067 20.5381 26.8847 21.5987 25.0577C22.6592 23.2307 24.077 21.6361 25.7674 20.3691C27.4578 19.1021 29.3862 18.1887 31.4373 17.6834L42.912 14.7938" stroke="#41453D" stroke-width="2" stroke-linecap="round" stroke-linejoin="round"/>
</svg>
