<svg width="64" height="64" viewBox="0 0 64 64" fill="none" xmlns="http://www.w3.org/2000/svg">
<path d="M6.99095 42.6931L18.0741 53.7763L53.3742 53.7763L56.991 42.6931L6.99095 42.6931Z" stroke="#F4F1E5" stroke-width="2" stroke-linecap="round" stroke-linejoin="round"/>
<path d="M42.403 10.991V13.1629L42.403 42.6931" stroke="#F4F1E5" stroke-width="2" stroke-linecap="round" stroke-linejoin="round"/>
<path d="M29.2691 42.6929L28.7844 41.7608C26.84 37.9271 26.4017 33.5043 27.5559 29.3635C28.7101 25.2228 31.3732 21.6644 35.0204 19.3894L42.403 14.7847" stroke="#F4F1E5" stroke-width="2" stroke-linecap="round" stroke-linejoin="round"/>
<path d="M18.1673 42.6929H21.7374C20.8549 40.9457 20.1281 39.1241 19.5655 37.2492C18.987 35.2175 18.8238 33.09 19.0857 30.9938C19.3476 28.8976 20.0291 26.8756 21.0896 25.0486C22.1502 23.2216 23.568 21.627 25.2584 20.36C26.9488 19.093 28.8771 18.1796 30.9283 17.6743L42.403 14.7847" stroke="#F4F1E5" stroke-width="2" stroke-linecap="round" stroke-linejoin="round"/>
</svg>
