<svg width="348" height="617" viewBox="0 0 348 617" fill="none" xmlns="http://www.w3.org/2000/svg">
<path d="M0.641572 612.222C0.435813 612.734 0.684495 613.317 1.19702 613.523L9.54909 616.876C10.0616 617.081 10.6439 616.833 10.8497 616.32C11.0554 615.808 10.8067 615.225 10.2942 615.02L2.87015 612.039L5.85063 604.615C6.05639 604.102 5.8077 603.52 5.29518 603.314C4.78265 603.109 4.20037 603.357 3.99461 603.87L0.641572 612.222ZM1.56958 612.595L1.96234 613.514C3.2088 612.982 4.45239 612.447 5.69312 611.911L5.29606 610.993L4.899 610.075C3.66114 610.61 2.42041 611.144 1.17682 611.675L1.56958 612.595ZM12.6973 607.75L13.103 608.664C15.5614 607.572 18.0083 606.473 20.4435 605.364L20.0293 604.454L19.6151 603.544C17.1855 604.65 14.7444 605.747 12.2917 606.835L12.6973 607.75ZM27.2916 601.107L27.7144 602.014C30.1339 600.885 32.5417 599.747 34.9376 598.602L34.5062 597.7L34.0748 596.797C31.6846 597.94 29.2826 599.075 26.8688 600.201L27.2916 601.107ZM41.7939 594.171L42.234 595.069C44.6538 593.883 47.0612 592.688 49.4561 591.485L49.0072 590.591L48.5583 589.697C46.1692 590.898 43.7676 592.09 41.3537 593.273L41.7939 594.171ZM56.1458 586.961L56.6035 587.85C58.9735 586.63 61.3309 585.402 63.6758 584.165L63.2093 583.281L62.7429 582.396C60.4039 583.629 58.0523 584.855 55.6882 586.072L56.1458 586.961ZM70.3418 579.474L70.8172 580.354C73.1919 579.071 75.5533 577.779 77.9013 576.48L77.417 575.605L76.9328 574.73C74.5907 576.026 72.2353 577.314 69.8665 578.594L70.3418 579.474ZM84.4121 571.687L84.9052 572.557C87.2264 571.241 89.5342 569.917 91.8285 568.585L91.3264 567.72L90.8243 566.855C88.536 568.183 86.2342 569.504 83.9189 570.817L84.4121 571.687ZM98.2767 563.636L98.7878 564.495C101.11 563.114 103.418 561.725 105.712 560.327L105.192 559.473L104.672 558.619C102.384 560.013 100.082 561.399 97.7656 562.776L98.2767 563.636ZM112.021 555.263L112.55 556.112C114.815 554.698 117.066 553.277 119.302 551.848L118.764 551.006L118.225 550.163C115.995 551.588 113.751 553.005 111.492 554.415L112.021 555.263ZM125.525 546.633L126.072 547.47C128.335 545.989 130.581 544.5 132.813 543.004L132.256 542.173L131.699 541.343C129.473 542.835 127.233 544.319 124.977 545.796L125.525 546.633ZM138.894 537.667L139.46 538.491C141.66 536.979 143.845 535.46 146.014 533.933L145.439 533.115L144.863 532.298C142.7 533.82 140.522 535.335 138.327 536.843L138.894 537.667ZM152.001 528.44L152.586 529.251C154.779 527.669 156.955 526.08 159.114 524.483L158.52 523.679L157.925 522.875C155.772 524.467 153.602 526.051 151.416 527.629L152.001 528.44ZM164.939 518.874L165.543 519.671C167.669 518.059 169.778 516.441 171.871 514.815L171.257 514.025L170.644 513.236C168.557 514.856 166.454 516.47 164.335 518.077L164.939 518.874ZM177.606 509.03L178.229 509.812C180.342 508.128 182.437 506.437 184.514 504.739L183.882 503.965L183.249 503.191C181.178 504.884 179.09 506.569 176.983 508.248L177.606 509.03ZM190.049 498.859L190.692 499.625C192.735 497.911 194.759 496.191 196.766 494.464L196.114 493.706L195.462 492.948C193.461 494.67 191.443 496.384 189.406 498.092L190.049 498.859ZM202.225 488.377L202.887 489.126C204.909 487.34 206.91 485.547 208.893 483.747L208.221 483.007L207.548 482.266C205.573 484.06 203.577 485.847 201.563 487.627L202.225 488.377ZM214.1 477.598L214.782 478.329C216.745 476.498 218.689 474.66 220.613 472.816L219.921 472.094L219.229 471.372C217.312 473.21 215.375 475.041 213.417 476.866L214.1 477.598ZM225.72 466.455L226.422 467.167C228.338 465.278 230.233 463.383 232.107 461.482L231.394 460.78L230.682 460.078C228.815 461.972 226.927 463.861 225.018 465.743L225.72 466.455ZM236.942 455.069L237.665 455.76C239.539 453.803 241.391 451.84 243.22 449.87L242.488 449.19L241.755 448.509C239.932 450.471 238.087 452.427 236.22 454.377L236.942 455.069ZM247.929 443.244L248.672 443.914C250.466 441.922 252.238 439.925 253.987 437.923L253.234 437.265L252.48 436.608C250.738 438.602 248.973 440.591 247.186 442.575L247.929 443.244ZM258.453 431.195L259.216 431.841C260.969 429.769 262.697 427.692 264.401 425.61L263.628 424.977L262.854 424.343C261.157 426.417 259.435 428.485 257.689 430.549L258.453 431.195ZM268.656 418.728L269.44 419.349C271.095 417.257 272.725 415.16 274.331 413.059L273.536 412.452L272.742 411.845C271.143 413.937 269.519 416.025 267.871 418.108L268.656 418.728ZM278.403 405.966L279.209 406.559C280.809 404.386 282.384 402.208 283.931 400.027L283.116 399.448L282.3 398.87C280.759 401.041 279.192 403.209 277.598 405.372L278.403 405.966ZM287.669 392.906L288.495 393.47C290.021 391.234 291.519 388.994 292.989 386.751L292.153 386.202L291.317 385.654C289.853 387.887 288.362 390.117 286.843 392.343L287.669 392.906ZM296.505 379.419L297.352 379.951C298.778 377.681 300.175 375.407 301.543 373.131L300.685 372.616L299.828 372.101C298.467 374.366 297.077 376.628 295.658 378.887L296.505 379.419ZM304.755 365.686L305.622 366.183C306.97 363.833 308.288 361.479 309.574 359.123L308.696 358.644L307.819 358.165C306.539 360.508 305.229 362.85 303.887 365.188L304.755 365.686ZM312.452 351.587L313.34 352.048C314.58 349.656 315.788 347.261 316.964 344.865L316.067 344.424L315.169 343.984C313.999 346.367 312.798 348.748 311.564 351.127L312.452 351.587ZM319.541 337.137L320.448 337.557C321.576 335.119 322.67 332.68 323.731 330.24L322.814 329.841L321.897 329.443C320.842 331.868 319.754 334.293 318.633 336.717L319.541 337.137ZM325.924 322.444L326.85 322.821C327.87 320.309 328.855 317.797 329.803 315.284L328.867 314.931L327.932 314.578C326.989 317.075 326.011 319.572 324.997 322.068L325.924 322.444ZM331.594 307.417L332.539 307.747C333.427 305.197 334.278 302.648 335.091 300.099L334.139 299.795L333.186 299.491C332.378 302.023 331.533 304.555 330.65 307.088L331.594 307.417ZM336.484 292.086L337.444 292.363C338.19 289.786 338.897 287.21 339.564 284.635L338.596 284.384L337.628 284.133C336.965 286.689 336.264 289.248 335.523 291.808L336.484 292.086ZM340.505 276.558L341.48 276.781C342.082 274.147 342.643 271.515 343.162 268.886L342.181 268.692L341.2 268.498C340.684 271.108 340.128 273.72 339.53 276.335L340.505 276.558ZM343.607 260.843L344.594 261.007C345.038 258.331 345.439 255.658 345.796 252.989L344.805 252.857L343.814 252.724C343.459 255.372 343.062 258.024 342.621 260.679L343.607 260.843ZM345.741 244.885L346.735 244.986C347.006 242.312 347.231 239.642 347.411 236.977L346.414 236.91L345.416 236.842C345.237 239.485 345.013 242.132 344.746 244.785L345.741 244.885ZM346.822 228.862L347.821 228.895C347.912 226.207 347.956 223.524 347.953 220.848L346.953 220.849L345.953 220.85C345.956 223.503 345.912 226.162 345.823 228.828L346.822 228.862ZM346.803 212.82L347.802 212.784C347.704 210.089 347.557 207.402 347.362 204.722L346.365 204.794L345.368 204.867C345.561 207.523 345.706 210.186 345.803 212.857L346.803 212.82ZM345.638 196.815L346.632 196.706C346.338 194.028 345.995 191.358 345.602 188.697L344.613 188.843L343.623 188.989C344.013 191.625 344.353 194.27 344.644 196.924L345.638 196.815ZM343.291 180.922L344.274 180.739C343.782 178.097 343.239 175.464 342.647 172.842L341.671 173.063L340.696 173.283C341.283 175.88 341.82 178.488 342.308 181.106L343.291 180.922ZM339.753 165.27L340.719 165.013C340.027 162.414 339.283 159.826 338.489 157.249L337.534 157.543L336.578 157.838C337.364 160.39 338.101 162.954 338.787 165.528L339.753 165.27ZM335.027 149.931L335.97 149.6C335.083 147.068 334.145 144.549 333.156 142.042L332.226 142.409L331.296 142.776C332.275 145.259 333.204 147.754 334.083 150.262L335.027 149.931ZM329.126 134.968L330.042 134.566C328.97 132.125 327.848 129.697 326.678 127.282L325.778 127.718L324.878 128.155C326.038 130.547 327.148 132.952 328.21 135.37L329.126 134.968ZM322.134 120.547L323.017 120.078C321.758 117.711 320.451 115.357 319.094 113.018L318.229 113.52L317.364 114.022C318.708 116.34 320.004 118.672 321.251 121.017L322.134 120.547ZM314.095 106.681L314.942 106.149C313.51 103.873 312.03 101.612 310.503 99.3653L309.676 99.9277L308.849 100.49C310.363 102.717 311.83 104.959 313.249 107.214L314.095 106.681ZM305.059 93.3868L305.866 92.7962C304.294 90.6476 302.676 88.5134 301.012 86.394L300.226 87.0115L299.439 87.6289C301.089 89.7308 302.693 91.8471 304.253 93.9774L305.059 93.3868ZM295.118 80.7241L295.884 80.0808C294.179 78.0516 292.43 76.0368 290.639 74.0368L289.894 74.7041L289.149 75.3715C290.927 77.3557 292.661 79.3545 294.353 81.3674L295.118 80.7241ZM284.458 68.824L285.181 68.1339C283.319 66.1812 281.414 64.2436 279.466 62.3214L278.764 63.0332L278.061 63.7451C279.995 65.6531 281.886 67.5763 283.734 69.5141L284.458 68.824ZM273.023 57.5318L273.705 56.8C271.76 54.9887 269.774 53.1919 267.749 51.4101L267.089 52.1608L266.428 52.9116C268.439 54.6811 270.41 56.4653 272.342 58.2637L273.023 57.5318ZM260.915 46.8785L261.554 46.1098C259.522 44.4189 257.453 42.7424 255.345 41.0803L254.726 41.8655L254.107 42.6507C256.2 44.302 258.256 45.9676 260.275 47.6472L260.915 46.8785ZM248.395 37.0015L248.995 36.201C246.841 34.5889 244.651 32.9914 242.423 31.4088L241.844 32.2239L241.265 33.0391C243.479 34.6123 245.656 36.2001 247.796 37.8021L248.395 37.0015ZM235.245 27.6526L235.805 26.824C233.622 25.3489 231.405 23.8876 229.154 22.4401L228.613 23.2812L228.072 24.1223C230.31 25.5617 232.515 27.0147 234.686 28.4813L235.245 27.6526ZM221.779 18.9927L222.301 18.1399C219.995 16.7279 217.656 15.3299 215.283 13.9463L214.779 14.8102L214.275 15.6741C216.636 17.0505 218.963 18.4411 221.257 19.8455L221.779 18.9927ZM207.929 10.9082L208.415 10.0343C206.096 8.74349 203.746 7.46583 201.365 6.20161L200.896 7.08481L200.427 7.96802C202.796 9.22615 205.135 10.4975 207.443 11.782L207.929 10.9082ZM193.679 3.34157L194.131 2.4495C192.909 1.8308 191.68 1.21552 190.443 0.603687L190 1.5L189.557 2.39631C190.788 3.00536 192.011 3.61781 193.227 4.23364L193.679 3.34157Z" fill="#737B6B"/>
</svg>
