<svg width="89" height="43" viewBox="0 0 89 43" fill="none" xmlns="http://www.w3.org/2000/svg">
<path d="M23.9799 7.34706C23.9288 6.91524 23.7214 6.58002 23.3578 6.34138C22.9941 6.10274 22.5481 5.98343 22.0197 5.98343C21.6333 5.98343 21.2953 6.04593 21.0055 6.17093C20.7186 6.29593 20.4941 6.4678 20.3322 6.68655C20.1731 6.9053 20.0936 7.15388 20.0936 7.43229C20.0936 7.66524 20.149 7.86553 20.2598 8.03314C20.3734 8.19791 20.5183 8.3357 20.6944 8.44649C20.8706 8.55445 21.0552 8.64394 21.2484 8.71496C21.4416 8.78314 21.6191 8.83854 21.7811 8.88115L22.6674 9.11979C22.8947 9.17945 23.1475 9.26184 23.426 9.36695C23.7072 9.47206 23.9757 9.61553 24.2314 9.79735C24.4899 9.97632 24.7029 10.2064 24.8706 10.4877C25.0382 10.7689 25.122 11.1141 25.122 11.5232C25.122 11.9948 24.9984 12.4209 24.7512 12.8016C24.5069 13.1823 24.149 13.4848 23.6774 13.7093C23.2086 13.9337 22.639 14.0459 21.9686 14.0459C21.3436 14.0459 20.8024 13.9451 20.345 13.7434C19.8904 13.5417 19.5325 13.2604 19.2711 12.8996C19.0126 12.5388 18.8663 12.1198 18.8322 11.6425H19.9231C19.9515 11.9721 20.0623 12.2448 20.2555 12.4607C20.4515 12.6738 20.6987 12.8329 20.997 12.938C21.2981 13.0402 21.622 13.0914 21.9686 13.0914C22.372 13.0914 22.7342 13.026 23.0552 12.8954C23.3762 12.7618 23.6305 12.5772 23.818 12.3414C24.0055 12.1027 24.0993 11.8243 24.0993 11.5062C24.0993 11.2164 24.0183 10.9806 23.8564 10.7988C23.6944 10.6169 23.4814 10.4692 23.2172 10.3556C22.9529 10.2419 22.6674 10.1425 22.3606 10.0573L21.2868 9.75047C20.6049 9.55445 20.0652 9.27462 19.6674 8.91098C19.2697 8.54735 19.0708 8.07149 19.0708 7.48343C19.0708 6.99479 19.2029 6.56865 19.4672 6.20502C19.7342 5.83854 20.0922 5.55445 20.541 5.35274C20.9927 5.1482 21.497 5.04593 22.0538 5.04593C22.6163 5.04593 23.1163 5.14678 23.5538 5.34848C23.9913 5.54735 24.3379 5.82007 24.5936 6.16666C24.8521 6.51326 24.9885 6.90672 25.0027 7.34706H23.9799ZM35.0823 7.89252H34.0255C33.963 7.58854 33.8536 7.32149 33.6973 7.09138C33.5439 6.86127 33.3564 6.66809 33.1348 6.51184C32.9161 6.35274 32.6732 6.23343 32.4061 6.15388C32.1391 6.07434 31.8607 6.03456 31.5709 6.03456C31.0425 6.03456 30.5638 6.16809 30.1348 6.43513C29.7087 6.70218 29.3692 7.09564 29.1164 7.61553C28.8664 8.13541 28.7414 8.7732 28.7414 9.52888C28.7414 10.2846 28.8664 10.9223 29.1164 11.4422C29.3692 11.9621 29.7087 12.3556 30.1348 12.6226C30.5638 12.8897 31.0425 13.0232 31.5709 13.0232C31.8607 13.0232 32.1391 12.9834 32.4061 12.9039C32.6732 12.8243 32.9161 12.7064 33.1348 12.5502C33.3564 12.3911 33.5439 12.1965 33.6973 11.9664C33.8536 11.7334 33.963 11.4664 34.0255 11.1652H35.0823C35.0027 11.6113 34.8578 12.0104 34.6476 12.3627C34.4374 12.715 34.176 13.0147 33.8635 13.2618C33.551 13.5062 33.2002 13.6922 32.811 13.8201C32.4246 13.9479 32.0113 14.0118 31.5709 14.0118C30.8266 14.0118 30.1647 13.83 29.5851 13.4664C29.0056 13.1027 28.5496 12.5857 28.2172 11.9152C27.8848 11.2448 27.7186 10.4493 27.7186 9.52888C27.7186 8.60843 27.8848 7.81297 28.2172 7.14252C28.5496 6.47206 29.0056 5.95502 29.5851 5.59138C30.1647 5.22774 30.8266 5.04593 31.5709 5.04593C32.0113 5.04593 32.4246 5.10985 32.811 5.23769C33.2002 5.36553 33.551 5.55303 33.8635 5.80019C34.176 6.04451 34.4374 6.3428 34.6476 6.69507C34.8578 7.04451 35.0027 7.44365 35.0823 7.89252ZM37.99 13.8925V5.16524H40.9389C41.6207 5.16524 42.1804 5.28172 42.6179 5.51468C43.0554 5.74479 43.3792 6.06155 43.5895 6.46496C43.7997 6.86837 43.9048 7.32718 43.9048 7.84138C43.9048 8.35559 43.7997 8.81155 43.5895 9.20928C43.3792 9.60701 43.0568 9.91951 42.6221 10.1468C42.1875 10.3712 41.6321 10.4834 40.9559 10.4834H38.5696V9.52888H40.9218C41.3878 9.52888 41.7628 9.4607 42.0468 9.32433C42.3338 9.18797 42.5412 8.99479 42.669 8.74479C42.7997 8.49195 42.865 8.19081 42.865 7.84138C42.865 7.49195 42.7997 7.18655 42.669 6.92519C42.5383 6.66382 42.3295 6.46212 42.0426 6.32007C41.7556 6.17519 41.3764 6.10274 40.9048 6.10274H39.0468V13.8925H37.99ZM42.098 9.97206L44.2457 13.8925H43.0184L40.9048 9.97206H42.098ZM54.2294 9.52888C54.2294 10.4493 54.0632 11.2448 53.7309 11.9152C53.3985 12.5857 52.9425 13.1027 52.363 13.4664C51.7834 13.83 51.1215 14.0118 50.3772 14.0118C49.6328 14.0118 48.9709 13.83 48.3914 13.4664C47.8118 13.1027 47.3559 12.5857 47.0235 11.9152C46.6911 11.2448 46.5249 10.4493 46.5249 9.52888C46.5249 8.60843 46.6911 7.81297 47.0235 7.14252C47.3559 6.47206 47.8118 5.95502 48.3914 5.59138C48.9709 5.22774 49.6328 5.04593 50.3772 5.04593C51.1215 5.04593 51.7834 5.22774 52.363 5.59138C52.9425 5.95502 53.3985 6.47206 53.7309 7.14252C54.0632 7.81297 54.2294 8.60843 54.2294 9.52888ZM53.2067 9.52888C53.2067 8.7732 53.0803 8.13541 52.8274 7.61553C52.5774 7.09564 52.238 6.70218 51.809 6.43513C51.3828 6.16809 50.9056 6.03456 50.3772 6.03456C49.8488 6.03456 49.3701 6.16809 48.9411 6.43513C48.5149 6.70218 48.1755 7.09564 47.9226 7.61553C47.6726 8.13541 47.5476 8.7732 47.5476 9.52888C47.5476 10.2846 47.6726 10.9223 47.9226 11.4422C48.1755 11.9621 48.5149 12.3556 48.9411 12.6226C49.3701 12.8897 49.8488 13.0232 50.3772 13.0232C50.9056 13.0232 51.3828 12.8897 51.809 12.6226C52.238 12.3556 52.5774 11.9621 52.8274 11.4422C53.0803 10.9223 53.2067 10.2846 53.2067 9.52888ZM57.2064 13.8925V5.16524H58.2632V12.955H62.3201V13.8925H57.2064ZM65.1564 13.8925V5.16524H66.2132V12.955H70.2701V13.8925H65.1564Z" fill="white"/>
<path d="M26.5 27.7866L44.5 40.8925L62.5 27.7866" stroke="white" stroke-width="3" stroke-linecap="round"/>
<path d="M31.75 24.8925L44.5 34.3579L57.25 24.8925" stroke="white" stroke-opacity="0.8" stroke-width="2" stroke-linecap="round"/>
</svg>
