<svg width="26" height="26" viewBox="0 0 26 26" fill="none" xmlns="http://www.w3.org/2000/svg">
<path d="M17.8535 3.04199C19.9246 3.04199 21.6035 4.72093 21.6035 6.79199V20.2588C21.6033 22.5536 18.9584 23.8392 17.1543 22.4209L13.1543 19.2764C13.0636 19.2051 12.9354 19.2051 12.8447 19.2764L8.84473 22.4209C7.0406 23.8384 4.39576 22.5534 4.39551 20.2588V6.79199C4.39551 4.72103 6.07459 3.04217 8.14551 3.04199H17.8535ZM8.14551 4.54199C6.90302 4.54217 5.89551 5.54946 5.89551 6.79199V20.2588C5.89576 21.3016 7.09796 21.8855 7.91797 21.2412L11.918 18.0967C12.5526 17.5977 13.4463 17.5978 14.0811 18.0967L18.0811 21.2412C18.9011 21.8859 20.1033 21.3018 20.1035 20.2588V6.79199C20.1035 5.54935 19.0962 4.54199 17.8535 4.54199H8.14551Z" fill="#201811"/>
</svg>
