<svg width="24" height="24" viewBox="0 0 24 24" fill="none" xmlns="http://www.w3.org/2000/svg">
<path d="M7.21967 3.71967C7.51256 3.42678 7.98732 3.42678 8.28022 3.71967C8.57311 4.01256 8.57311 4.48732 8.28022 4.78022L5.06049 7.99994H14.9999C18.3137 7.99994 20.9999 10.6862 20.9999 13.9999C20.9999 17.3137 18.3137 19.9999 14.9999 19.9999H10.9999C10.5857 19.9999 10.2499 19.6642 10.2499 19.2499C10.2499 18.8357 10.5857 18.4999 10.9999 18.4999H14.9999C17.4852 18.4999 19.4999 16.4852 19.4999 13.9999C19.4999 11.5147 17.4852 9.49994 14.9999 9.49994H5.06049L8.28022 12.7197C8.57311 13.0126 8.57311 13.4873 8.28022 13.7802C7.98732 14.0731 7.51256 14.0731 7.21967 13.7802L2.71967 9.28022C2.42678 8.98732 2.42678 8.51256 2.71967 8.21967L7.21967 3.71967Z" fill="white"/>
</svg>
