<svg width="24" height="24" viewBox="0 0 24 24" fill="none" xmlns="http://www.w3.org/2000/svg">
<path d="M11.9995 5.47231C13.1863 4.22512 14.7396 3.6541 16.2769 3.79067C17.9533 3.93987 19.5255 4.92234 20.524 6.60121C22.135 9.3107 21.7225 13.0081 19.5044 15.1559L14.3687 20.1286L14.3618 20.1344L13.9956 20.4811C12.9511 21.4684 11.3361 21.5304 10.2202 20.6666L10.0034 20.4811L9.6304 20.1286L9.62454 20.1217L4.49563 15.1559C2.27783 13.0081 1.86507 9.31059 3.4761 6.60121C4.47444 4.92238 6.04587 3.94001 7.72219 3.79067C9.25955 3.65384 10.8126 4.2253 11.9995 5.47231Z" fill="#1F1F1F"/>
</svg>
