<svg width="24" height="24" viewBox="0 0 24 24" fill="none" xmlns="http://www.w3.org/2000/svg">
<path d="M12 5.47296C13.1869 4.22566 14.7399 3.65462 16.2773 3.79132C17.9539 3.94057 19.526 4.92278 20.5244 6.60187C22.1353 9.31133 21.7228 13.0088 19.5049 15.1566L14.3691 20.1292L14.3623 20.1351L13.9961 20.4818C12.9517 21.4689 11.3365 21.5308 10.2207 20.6673L10.0039 20.4818L9.63086 20.1292L9.625 20.1224L4.49609 15.1566C2.27803 13.0088 1.86559 9.31138 3.47656 6.60187C4.47497 4.92287 6.04618 3.94057 7.72266 3.79132C9.26014 3.6545 10.8131 4.22572 12 5.47296Z" fill="#F4D000"/>
</svg>
