<svg width="24" height="24" viewBox="0 0 24 24" fill="none" xmlns="http://www.w3.org/2000/svg">
<path d="M10.2109 4.9966C10.625 4.9966 10.9607 5.3326 10.9609 5.7466C10.9609 6.16081 10.6252 6.4966 10.2109 6.4966H6.75C5.50757 6.49666 4.50025 7.50421 4.5 8.7466V17.2456C4.5 18.4882 5.50742 19.4956 6.75 19.4956H15.2471C16.4897 19.4956 17.4971 18.4883 17.4971 17.2456V13.7935C17.4973 13.3795 17.8331 13.0435 18.2471 13.0435C18.6611 13.0435 18.9968 13.3795 18.9971 13.7935V17.2456C18.9971 19.3167 17.3181 20.9956 15.2471 20.9956H6.75C4.67899 20.9956 3 19.3166 3 17.2456V8.7466C3.00025 6.67579 4.67914 4.99666 6.75 4.9966H10.2109ZM20.3086 2.91945C20.7228 2.9195 21.0586 3.25527 21.0586 3.66945V10.0337C21.0584 10.4478 20.7227 10.7837 20.3086 10.7837C19.8945 10.7837 19.5588 10.4478 19.5586 10.0337V5.50148L11.5303 13.5298C11.2374 13.8227 10.7626 13.8227 10.4697 13.5298C10.1771 13.2369 10.1769 12.7621 10.4697 12.4693L18.5195 4.41945H13.9443C13.5302 4.41934 13.1943 4.08359 13.1943 3.66945C13.1943 3.2553 13.5302 2.91956 13.9443 2.91945H20.3086Z" fill="#1F1F1F"/>
</svg>
