<svg width="69" height="69" viewBox="0 0 69 69" fill="none" xmlns="http://www.w3.org/2000/svg">
<path d="M8.57715 43.1303L18.8147 54.999L54.0191 57.5966L58.4416 46.8097L8.57715 43.1303Z" stroke="white" stroke-width="2" stroke-linecap="round" stroke-linejoin="round"/>
<path d="M46.226 14.1201L46.0662 16.2861L43.8931 45.7363" stroke="white" stroke-width="2" stroke-linecap="round" stroke-linejoin="round"/>
<path d="M30.7949 44.7698L30.3801 43.8045C28.723 39.8382 28.6114 35.395 30.0672 31.3505C31.523 27.3059 34.4407 23.9532 38.2455 21.9527L45.9468 17.9037" stroke="white" stroke-width="2" stroke-linecap="round" stroke-linejoin="round"/>
<path d="M19.7232 43.9529L23.2836 44.2156C22.5321 42.4082 21.9413 40.538 21.5182 38.6268C21.0908 36.558 21.0846 34.4243 21.5 32.353C21.9154 30.2817 22.7439 28.3154 23.936 26.5714C25.1281 24.8274 26.6594 23.3414 28.4385 22.2023C30.2175 21.0631 32.2079 20.2941 34.2907 19.9411L45.9468 17.9037" stroke="white" stroke-width="2" stroke-linecap="round" stroke-linejoin="round"/>
</svg>
