<svg width="21" height="21" viewBox="0 0 21 21" fill="none" xmlns="http://www.w3.org/2000/svg">
<g clip-path="url(#clip0_1736_2266)">
<path d="M7.31555 0.691181C5.21732 1.41907 3.40781 2.80064 2.15281 4.63295C0.897812 6.46526 0.263469 8.65173 0.342959 10.8712C0.422448 13.0907 1.21158 15.2262 2.59445 16.964C3.97731 18.7018 5.88101 19.9504 8.02594 20.5263C9.76487 20.975 11.5868 20.9947 13.335 20.5838C14.9187 20.228 16.3829 19.4671 17.5842 18.3755C18.8345 17.2046 19.742 15.7152 20.2092 14.0672C20.717 12.2751 20.8074 10.3904 20.4734 8.55798H10.7084V12.6087H16.3636C16.2506 13.2547 16.0084 13.8714 15.6515 14.4216C15.2946 14.9719 14.8304 15.4445 14.2866 15.8112C13.596 16.268 12.8175 16.5753 12.0012 16.7135C11.1824 16.8658 10.3426 16.8658 9.52383 16.7135C8.69398 16.542 7.90896 16.1994 7.21875 15.7078C6.10993 14.9229 5.27736 13.8079 4.83984 12.5217C4.39493 11.2115 4.39493 9.79108 4.83984 8.48087C5.15128 7.56247 5.66612 6.72628 6.34594 6.0347C7.12391 5.22873 8.10884 4.65263 9.19268 4.36959C10.2765 4.08655 11.4174 4.1075 12.4901 4.43017C13.3281 4.6874 14.0944 5.13684 14.7279 5.74267C15.3655 5.10829 16.0021 4.47227 16.6376 3.83462C16.9657 3.49173 17.3234 3.16524 17.6466 2.81415C16.6795 1.91423 15.5444 1.21398 14.3062 0.753525C12.0515 -0.0651641 9.58449 -0.0871656 7.31555 0.691181Z" fill="white"/>
<path d="M7.31555 0.690025C9.58431 -0.0888504 12.0514 -0.0674281 14.3063 0.750728C15.5446 1.21431 16.6792 1.91793 17.6449 2.8212C17.3168 3.17229 16.9706 3.50042 16.6359 3.84167C15.9994 4.47713 15.3634 5.11042 14.7279 5.74151C14.0944 5.13569 13.3281 4.68625 12.4901 4.42901C11.4177 4.10522 10.2769 4.08305 9.19279 4.36493C8.10866 4.64681 7.12313 5.22186 6.3443 6.02698C5.66448 6.71856 5.14964 7.55475 4.83821 8.47315L1.43719 5.83995C2.65455 3.42587 4.76233 1.57928 7.31555 0.690025Z" fill="#E33629"/>
<path d="M0.534854 8.44844C0.717654 7.54247 1.02114 6.66512 1.4372 5.83984L4.83821 8.47961C4.3933 9.78982 4.3933 11.2103 4.83821 12.5205C3.70509 13.3955 2.57142 14.2748 1.4372 15.1586C0.395648 13.0854 0.0779932 10.7232 0.534854 8.44844Z" fill="#F8BD00"/>
<path d="M10.7084 8.55664H20.4734C20.8074 10.3891 20.717 12.2738 20.2092 14.0659C19.742 15.7138 18.8345 17.2033 17.5842 18.3741C16.4867 17.5177 15.3842 16.6679 14.2866 15.8115C14.8307 15.4444 15.2952 14.9713 15.6521 14.4205C16.009 13.8696 16.251 13.2523 16.3636 12.6057H10.7084C10.7067 11.2571 10.7084 9.90687 10.7084 8.55664Z" fill="#587DBD"/>
<path d="M1.43555 15.1596C2.56977 14.2846 3.70344 13.4052 4.83656 12.5215C5.27495 13.8081 6.10871 14.9232 7.21875 15.7076C7.91111 16.1969 8.69782 16.5366 9.52875 16.7051C10.3475 16.8573 11.1873 16.8573 12.0061 16.7051C12.8225 16.5669 13.6009 16.2595 14.2915 15.8027C15.3891 16.6591 16.4916 17.509 17.5891 18.3654C16.388 19.4576 14.9238 20.2191 13.3399 20.5753C11.5917 20.9863 9.7698 20.9666 8.03086 20.5179C6.65553 20.1507 5.37087 19.5033 4.25742 18.6164C3.0789 17.6807 2.11633 16.5016 1.43555 15.1596Z" fill="#319F43"/>
</g>
<defs>
<clipPath id="clip0_1736_2266">
<rect width="21" height="21" fill="white"/>
</clipPath>
</defs>
</svg>
